G04*
G04 #@! TF.GenerationSoftware,Altium Limited,Altium Designer,25.2.1 (25)*
G04*
G04 Layer_Physical_Order=2*
G04 Layer_Color=16711680*
%FSLAX44Y44*%
%MOMM*%
G71*
G04*
G04 #@! TF.SameCoordinates,855B9A58-CFE3-4230-A620-731D9DC95041*
G04*
G04*
G04 #@! TF.FilePolarity,Positive*
G04*
G01*
G75*
%ADD24C,0.3810*%
%ADD25C,0.5000*%
%ADD26C,1.5000*%
%ADD27R,1.5000X1.5000*%
%ADD28C,0.6000*%
G36*
X695000Y5000D02*
X5000D01*
Y520000D01*
X695000D01*
Y5000D01*
D02*
G37*
%LPC*%
G36*
X35040Y516073D02*
Y506340D01*
X44774D01*
X44678Y507063D01*
X43419Y510104D01*
X41415Y512715D01*
X38804Y514719D01*
X35763Y515978D01*
X35040Y516073D01*
D02*
G37*
G36*
X29960D02*
X29237Y515978D01*
X26196Y514719D01*
X23585Y512715D01*
X21581Y510104D01*
X20322Y507063D01*
X20227Y506340D01*
X29960D01*
Y516073D01*
D02*
G37*
G36*
X680000Y363900D02*
X670040D01*
Y353940D01*
X680000D01*
Y363900D01*
D02*
G37*
G36*
X664960D02*
X655000D01*
Y353940D01*
X664960D01*
Y363900D01*
D02*
G37*
G36*
X315250Y346804D02*
X313162Y346529D01*
X311215Y345723D01*
X309544Y344441D01*
X309535Y344429D01*
X308265D01*
X308256Y344441D01*
X306584Y345723D01*
X304638Y346529D01*
X302550Y346804D01*
X300462Y346529D01*
X298515Y345723D01*
X296844Y344441D01*
X295562Y342770D01*
X294756Y340824D01*
X294481Y338735D01*
X294756Y336647D01*
X295562Y334701D01*
X295585Y334670D01*
Y288004D01*
X295206Y287088D01*
X294931Y285000D01*
X295206Y282912D01*
X295585Y281996D01*
Y87615D01*
X295562Y87584D01*
X294756Y85638D01*
X294481Y83550D01*
X294756Y81461D01*
X295562Y79515D01*
X296844Y77844D01*
X298515Y76562D01*
X300462Y75756D01*
X302550Y75481D01*
X304638Y75756D01*
X306584Y76562D01*
X308256Y77844D01*
X308265Y77856D01*
X309535D01*
X309544Y77844D01*
X311215Y76562D01*
X313162Y75756D01*
X315250Y75481D01*
X317338Y75756D01*
X319284Y76562D01*
X320956Y77844D01*
X322238Y79515D01*
X323044Y81461D01*
X323319Y83550D01*
X323044Y85638D01*
X322238Y87584D01*
X322215Y87615D01*
Y258435D01*
X322238Y258465D01*
X323044Y260412D01*
X323319Y262500D01*
X323044Y264588D01*
X322238Y266535D01*
X322215Y266565D01*
Y334670D01*
X322238Y334701D01*
X323044Y336647D01*
X323319Y338735D01*
X323044Y340824D01*
X322238Y342770D01*
X320956Y344441D01*
X319284Y345723D01*
X317338Y346529D01*
X315250Y346804D01*
D02*
G37*
G36*
X298983Y437565D02*
X297025Y437307D01*
X295200Y436551D01*
X293633Y435349D01*
X293633Y435349D01*
X262662Y404377D01*
X262108Y404148D01*
X260437Y402866D01*
X259154Y401194D01*
X258349Y399248D01*
X258074Y397160D01*
X258349Y395072D01*
X258578Y394518D01*
Y144802D01*
X258349Y144248D01*
X258074Y142160D01*
X258349Y140072D01*
X259154Y138125D01*
X260437Y136454D01*
X262108Y135172D01*
X264054Y134366D01*
X266143Y134091D01*
X268231Y134366D01*
X270177Y135172D01*
X271848Y136454D01*
X273130Y138125D01*
X273937Y140072D01*
X274212Y142160D01*
X273937Y144248D01*
X273707Y144802D01*
Y394027D01*
X302116Y422435D01*
X444867D01*
X546651Y320651D01*
X546651Y320651D01*
X548218Y319449D01*
X550042Y318693D01*
X552000Y318435D01*
X657549D01*
X658585Y317085D01*
X661196Y315081D01*
X663923Y313952D01*
X663923Y313950D01*
Y312650D01*
X663923Y312648D01*
X661196Y311519D01*
X658585Y309515D01*
X656581Y306904D01*
X655322Y303863D01*
X655227Y303140D01*
X667500D01*
X679773D01*
X679678Y303863D01*
X678419Y306904D01*
X676415Y309515D01*
X673804Y311519D01*
X671077Y312648D01*
X671077Y312650D01*
Y313950D01*
X671077Y313952D01*
X673804Y315081D01*
X676415Y317085D01*
X678419Y319696D01*
X679678Y322737D01*
X680108Y326000D01*
X679678Y329263D01*
X678419Y332304D01*
X676415Y334915D01*
X673804Y336919D01*
X672087Y337630D01*
X672339Y338900D01*
X680000D01*
Y348860D01*
X667500D01*
X655000D01*
Y338900D01*
X662661D01*
X662913Y337630D01*
X661196Y336919D01*
X658585Y334915D01*
X657549Y333565D01*
X555133D01*
X453349Y435349D01*
X451782Y436551D01*
X449958Y437307D01*
X448000Y437565D01*
X298983D01*
X298983Y437565D01*
D02*
G37*
G36*
X44774Y501260D02*
X32500D01*
X20227D01*
X20322Y500537D01*
X21581Y497496D01*
X23585Y494885D01*
X26196Y492881D01*
X28923Y491752D01*
X28923Y491750D01*
Y490450D01*
X28923Y490448D01*
X26196Y489319D01*
X23585Y487315D01*
X21581Y484704D01*
X20322Y481663D01*
X19892Y478400D01*
X20322Y475137D01*
X21581Y472096D01*
X23585Y469485D01*
X26196Y467481D01*
X28923Y466352D01*
X28923Y466350D01*
Y465050D01*
X28923Y465048D01*
X26196Y463919D01*
X23585Y461915D01*
X21581Y459304D01*
X20322Y456263D01*
X19892Y453000D01*
X20322Y449737D01*
X21581Y446696D01*
X23585Y444085D01*
X26196Y442081D01*
X28923Y440952D01*
X28923Y440950D01*
Y439650D01*
X28923Y439648D01*
X26196Y438519D01*
X23585Y436515D01*
X21581Y433904D01*
X20322Y430863D01*
X19892Y427600D01*
X20322Y424337D01*
X21581Y421296D01*
X23585Y418685D01*
X26196Y416681D01*
X28923Y415552D01*
X28923Y415550D01*
Y414250D01*
X28923Y414248D01*
X26196Y413119D01*
X23585Y411115D01*
X21581Y408504D01*
X20322Y405463D01*
X19892Y402200D01*
X20322Y398937D01*
X21581Y395896D01*
X23585Y393285D01*
X26196Y391281D01*
X28923Y390152D01*
X28923Y390150D01*
Y388850D01*
X28923Y388848D01*
X26196Y387719D01*
X23585Y385715D01*
X21581Y383104D01*
X20322Y380063D01*
X19892Y376800D01*
X20322Y373537D01*
X21581Y370496D01*
X23585Y367885D01*
X26196Y365881D01*
X28923Y364752D01*
X28923Y364750D01*
Y363450D01*
X28923Y363448D01*
X26196Y362319D01*
X23585Y360315D01*
X21581Y357704D01*
X20322Y354663D01*
X19892Y351400D01*
X20322Y348137D01*
X21581Y345096D01*
X23585Y342485D01*
X26196Y340481D01*
X28923Y339352D01*
X28923Y339350D01*
Y338050D01*
X28923Y338048D01*
X26196Y336919D01*
X23585Y334915D01*
X21581Y332304D01*
X20322Y329263D01*
X19892Y326000D01*
X20322Y322737D01*
X21581Y319696D01*
X23585Y317085D01*
X26196Y315081D01*
X28923Y313952D01*
X28923Y313950D01*
Y312650D01*
X28923Y312648D01*
X26196Y311519D01*
X23585Y309515D01*
X21581Y306904D01*
X20322Y303863D01*
X19892Y300600D01*
X20322Y297337D01*
X21581Y294296D01*
X23585Y291685D01*
X26196Y289681D01*
X28923Y288552D01*
X28923Y288550D01*
Y287250D01*
X28923Y287248D01*
X26196Y286119D01*
X23585Y284115D01*
X21581Y281504D01*
X20322Y278463D01*
X20227Y277740D01*
X32500D01*
X44774D01*
X44678Y278463D01*
X43419Y281504D01*
X41415Y284115D01*
X38804Y286119D01*
X36077Y287248D01*
X36077Y287250D01*
Y288550D01*
X36077Y288552D01*
X38804Y289681D01*
X41415Y291685D01*
X43419Y294296D01*
X44678Y297337D01*
X45108Y300600D01*
X44678Y303863D01*
X43419Y306904D01*
X41415Y309515D01*
X38804Y311519D01*
X36077Y312648D01*
X36077Y312650D01*
Y313950D01*
X36077Y313952D01*
X38804Y315081D01*
X41415Y317085D01*
X43419Y319696D01*
X44678Y322737D01*
X45108Y326000D01*
X44678Y329263D01*
X43419Y332304D01*
X41415Y334915D01*
X38804Y336919D01*
X36077Y338048D01*
X36077Y338050D01*
Y339350D01*
X36077Y339352D01*
X38804Y340481D01*
X41415Y342485D01*
X43419Y345096D01*
X44678Y348137D01*
X45108Y351400D01*
X44678Y354663D01*
X43419Y357704D01*
X41415Y360315D01*
X38804Y362319D01*
X36077Y363448D01*
X36077Y363450D01*
Y364750D01*
X36077Y364752D01*
X38804Y365881D01*
X41415Y367885D01*
X43419Y370496D01*
X44678Y373537D01*
X45108Y376800D01*
X44678Y380063D01*
X43419Y383104D01*
X41415Y385715D01*
X38804Y387719D01*
X36077Y388848D01*
X36077Y388850D01*
Y390150D01*
X36077Y390152D01*
X38804Y391281D01*
X41415Y393285D01*
X43419Y395896D01*
X44678Y398937D01*
X45108Y402200D01*
X44678Y405463D01*
X43419Y408504D01*
X41415Y411115D01*
X38804Y413119D01*
X36077Y414248D01*
X36077Y414250D01*
Y415550D01*
X36077Y415552D01*
X38804Y416681D01*
X41415Y418685D01*
X43419Y421296D01*
X44678Y424337D01*
X45108Y427600D01*
X44678Y430863D01*
X43419Y433904D01*
X41415Y436515D01*
X38804Y438519D01*
X36077Y439648D01*
X36077Y439650D01*
Y440950D01*
X36077Y440952D01*
X38804Y442081D01*
X41415Y444085D01*
X43419Y446696D01*
X44678Y449737D01*
X45108Y453000D01*
X44678Y456263D01*
X43419Y459304D01*
X41415Y461915D01*
X38804Y463919D01*
X36077Y465048D01*
X36077Y465050D01*
Y466350D01*
X36077Y466352D01*
X38804Y467481D01*
X41415Y469485D01*
X43419Y472096D01*
X44678Y475137D01*
X45108Y478400D01*
X44678Y481663D01*
X43419Y484704D01*
X41415Y487315D01*
X38804Y489319D01*
X36077Y490448D01*
X36077Y490450D01*
Y491750D01*
X36077Y491752D01*
X38804Y492881D01*
X41415Y494885D01*
X43419Y497496D01*
X44678Y500537D01*
X44774Y501260D01*
D02*
G37*
G36*
Y272660D02*
X32500D01*
X20227D01*
X20322Y271937D01*
X21581Y268896D01*
X23585Y266285D01*
X26196Y264281D01*
X28923Y263152D01*
X28923Y263150D01*
Y261850D01*
X28923Y261848D01*
X26196Y260719D01*
X23585Y258715D01*
X21581Y256104D01*
X20322Y253063D01*
X20227Y252340D01*
X32500D01*
X44774D01*
X44678Y253063D01*
X43419Y256104D01*
X41415Y258715D01*
X38804Y260719D01*
X36077Y261848D01*
X36077Y261850D01*
Y263150D01*
X36077Y263152D01*
X38804Y264281D01*
X41415Y266285D01*
X43419Y268896D01*
X44678Y271937D01*
X44774Y272660D01*
D02*
G37*
G36*
X679773Y298060D02*
X667500D01*
X655227D01*
X655322Y297337D01*
X656581Y294296D01*
X658585Y291685D01*
X661196Y289681D01*
X663923Y288552D01*
X663923Y288550D01*
Y287250D01*
X663923Y287248D01*
X661196Y286119D01*
X658585Y284115D01*
X656581Y281504D01*
X655322Y278463D01*
X654892Y275200D01*
X655322Y271937D01*
X656581Y268896D01*
X658585Y266285D01*
X661196Y264281D01*
X663923Y263152D01*
X663923Y263150D01*
Y261850D01*
X663923Y261848D01*
X661196Y260719D01*
X658585Y258715D01*
X656581Y256104D01*
X655322Y253063D01*
X654892Y249800D01*
X655322Y246537D01*
X656581Y243496D01*
X658585Y240885D01*
X661196Y238881D01*
X663923Y237752D01*
X663923Y237750D01*
Y236450D01*
X663923Y236448D01*
X661196Y235319D01*
X658585Y233315D01*
X656581Y230704D01*
X655322Y227663D01*
X655227Y226940D01*
X667500D01*
X679773D01*
X679678Y227663D01*
X678419Y230704D01*
X676415Y233315D01*
X673804Y235319D01*
X671077Y236448D01*
X671077Y236450D01*
Y237750D01*
X671077Y237752D01*
X673804Y238881D01*
X676415Y240885D01*
X678419Y243496D01*
X679678Y246537D01*
X680108Y249800D01*
X679678Y253063D01*
X678419Y256104D01*
X676415Y258715D01*
X673804Y260719D01*
X671077Y261848D01*
X671077Y261850D01*
Y263150D01*
X671077Y263152D01*
X673804Y264281D01*
X676415Y266285D01*
X678419Y268896D01*
X679678Y271937D01*
X680108Y275200D01*
X679678Y278463D01*
X678419Y281504D01*
X676415Y284115D01*
X673804Y286119D01*
X671077Y287248D01*
X671077Y287250D01*
Y288550D01*
X671077Y288552D01*
X673804Y289681D01*
X676415Y291685D01*
X678419Y294296D01*
X679678Y297337D01*
X679773Y298060D01*
D02*
G37*
G36*
Y221860D02*
X667500D01*
X655227D01*
X655322Y221137D01*
X656581Y218096D01*
X658585Y215485D01*
X661196Y213481D01*
X663923Y212352D01*
X663923Y212350D01*
Y211050D01*
X663923Y211048D01*
X661196Y209919D01*
X658585Y207915D01*
X656581Y205304D01*
X655322Y202263D01*
X654892Y199000D01*
X655322Y195737D01*
X656581Y192696D01*
X658585Y190085D01*
X661196Y188081D01*
X663923Y186952D01*
X663923Y186950D01*
Y185650D01*
X663923Y185648D01*
X661196Y184519D01*
X658585Y182515D01*
X656581Y179904D01*
X655322Y176863D01*
X655227Y176140D01*
X667500D01*
X679773D01*
X679678Y176863D01*
X678419Y179904D01*
X676415Y182515D01*
X673804Y184519D01*
X671077Y185648D01*
X671077Y185650D01*
Y186950D01*
X671077Y186952D01*
X673804Y188081D01*
X676415Y190085D01*
X678419Y192696D01*
X679678Y195737D01*
X680108Y199000D01*
X679678Y202263D01*
X678419Y205304D01*
X676415Y207915D01*
X673804Y209919D01*
X671077Y211048D01*
X671077Y211050D01*
Y212350D01*
X671077Y212352D01*
X673804Y213481D01*
X676415Y215485D01*
X678419Y218096D01*
X679678Y221137D01*
X679773Y221860D01*
D02*
G37*
G36*
X391450Y290619D02*
X389361Y290344D01*
X387415Y289538D01*
X385744Y288256D01*
X384462Y286585D01*
X383656Y284639D01*
X383381Y282550D01*
X383656Y280462D01*
X384462Y278516D01*
X384485Y278485D01*
Y183330D01*
X384462Y183299D01*
X383656Y181353D01*
X383381Y179265D01*
X383656Y177176D01*
X384462Y175230D01*
X385744Y173559D01*
X387415Y172277D01*
X389361Y171471D01*
X391450Y171196D01*
X393538Y171471D01*
X395484Y172277D01*
X397155Y173559D01*
X398438Y175230D01*
X399244Y177176D01*
X399519Y179265D01*
X399244Y181353D01*
X398438Y183299D01*
X398414Y183330D01*
Y278485D01*
X398438Y278516D01*
X399244Y280462D01*
X399519Y282550D01*
X399244Y284639D01*
X398438Y286585D01*
X397155Y288256D01*
X395484Y289538D01*
X393538Y290344D01*
X391450Y290619D01*
D02*
G37*
G36*
X679773Y171060D02*
X670040D01*
Y161327D01*
X670763Y161422D01*
X673804Y162681D01*
X676415Y164685D01*
X678419Y167296D01*
X679678Y170337D01*
X679773Y171060D01*
D02*
G37*
G36*
X664960D02*
X655227D01*
X655322Y170337D01*
X656581Y167296D01*
X658585Y164685D01*
X661196Y162681D01*
X664237Y161422D01*
X664960Y161327D01*
Y171060D01*
D02*
G37*
G36*
X44774Y247260D02*
X32500D01*
X20227D01*
X20322Y246537D01*
X21581Y243496D01*
X23585Y240885D01*
X26196Y238881D01*
X28923Y237752D01*
X28923Y237750D01*
Y236450D01*
X28923Y236448D01*
X26196Y235319D01*
X23585Y233315D01*
X21581Y230704D01*
X20322Y227663D01*
X19892Y224400D01*
X20322Y221137D01*
X21581Y218096D01*
X23585Y215485D01*
X26196Y213481D01*
X28923Y212352D01*
X28923Y212350D01*
Y211050D01*
X28923Y211048D01*
X26196Y209919D01*
X23585Y207915D01*
X21581Y205304D01*
X20322Y202263D01*
X19892Y199000D01*
X20322Y195737D01*
X21581Y192696D01*
X23585Y190085D01*
X26196Y188081D01*
X28923Y186952D01*
X28923Y186950D01*
Y185650D01*
X28923Y185648D01*
X26196Y184519D01*
X23585Y182515D01*
X21581Y179904D01*
X20322Y176863D01*
X19892Y173600D01*
X20322Y170337D01*
X21581Y167296D01*
X23585Y164685D01*
X26196Y162681D01*
X28923Y161552D01*
X28923Y161550D01*
Y160250D01*
X28923Y160248D01*
X26196Y159119D01*
X23585Y157115D01*
X21581Y154504D01*
X20322Y151463D01*
X19892Y148200D01*
X20322Y144937D01*
X21581Y141896D01*
X23585Y139285D01*
X26196Y137281D01*
X28923Y136152D01*
X28923Y136150D01*
Y134850D01*
X28923Y134848D01*
X26196Y133719D01*
X23585Y131715D01*
X21581Y129104D01*
X20322Y126063D01*
X19892Y122800D01*
X20322Y119537D01*
X21581Y116496D01*
X23585Y113885D01*
X26196Y111881D01*
X28923Y110752D01*
X28923Y110750D01*
Y109450D01*
X28923Y109448D01*
X26196Y108319D01*
X23585Y106315D01*
X21581Y103704D01*
X20322Y100663D01*
X19892Y97400D01*
X20322Y94137D01*
X21581Y91096D01*
X23585Y88485D01*
X26196Y86481D01*
X28923Y85352D01*
X28923Y85350D01*
Y84050D01*
X28923Y84048D01*
X26196Y82919D01*
X23585Y80915D01*
X21581Y78304D01*
X20322Y75263D01*
X19892Y72000D01*
X20322Y68737D01*
X21581Y65696D01*
X23585Y63085D01*
X26196Y61081D01*
X28923Y59952D01*
X28923Y59950D01*
Y58650D01*
X28923Y58648D01*
X26196Y57519D01*
X23585Y55515D01*
X21581Y52904D01*
X20322Y49863D01*
X19892Y46600D01*
X20322Y43337D01*
X21581Y40296D01*
X23585Y37685D01*
X26196Y35681D01*
X27913Y34970D01*
X27661Y33700D01*
X20000D01*
Y23740D01*
X32500D01*
X45000D01*
Y33700D01*
X37339D01*
X37087Y34970D01*
X38804Y35681D01*
X41415Y37685D01*
X43419Y40296D01*
X44678Y43337D01*
X45108Y46600D01*
X44678Y49863D01*
X43419Y52904D01*
X41415Y55515D01*
X38804Y57519D01*
X36077Y58648D01*
X36077Y58650D01*
Y59950D01*
X36077Y59952D01*
X38804Y61081D01*
X41415Y63085D01*
X43419Y65696D01*
X44678Y68737D01*
X45108Y72000D01*
X44678Y75263D01*
X43419Y78304D01*
X41415Y80915D01*
X38804Y82919D01*
X36077Y84048D01*
X36077Y84050D01*
Y85350D01*
X36077Y85352D01*
X38804Y86481D01*
X41415Y88485D01*
X43419Y91096D01*
X44678Y94137D01*
X45108Y97400D01*
X44678Y100663D01*
X43419Y103704D01*
X41415Y106315D01*
X38804Y108319D01*
X36077Y109448D01*
X36077Y109450D01*
Y110750D01*
X36077Y110752D01*
X38804Y111881D01*
X41415Y113885D01*
X43419Y116496D01*
X44678Y119537D01*
X45108Y122800D01*
X44678Y126063D01*
X43419Y129104D01*
X41415Y131715D01*
X38804Y133719D01*
X36077Y134848D01*
X36077Y134850D01*
Y136150D01*
X36077Y136152D01*
X38804Y137281D01*
X41415Y139285D01*
X43419Y141896D01*
X44678Y144937D01*
X45108Y148200D01*
X44678Y151463D01*
X43419Y154504D01*
X41415Y157115D01*
X38804Y159119D01*
X36077Y160248D01*
X36077Y160250D01*
Y161550D01*
X36077Y161552D01*
X38804Y162681D01*
X41415Y164685D01*
X43419Y167296D01*
X44678Y170337D01*
X45108Y173600D01*
X44678Y176863D01*
X43419Y179904D01*
X41415Y182515D01*
X38804Y184519D01*
X36077Y185648D01*
X36077Y185650D01*
Y186950D01*
X36077Y186952D01*
X38804Y188081D01*
X41415Y190085D01*
X43419Y192696D01*
X44678Y195737D01*
X45108Y199000D01*
X44678Y202263D01*
X43419Y205304D01*
X41415Y207915D01*
X38804Y209919D01*
X36077Y211048D01*
X36077Y211050D01*
Y212350D01*
X36077Y212352D01*
X38804Y213481D01*
X41415Y215485D01*
X43419Y218096D01*
X44678Y221137D01*
X45108Y224400D01*
X44678Y227663D01*
X43419Y230704D01*
X41415Y233315D01*
X38804Y235319D01*
X36077Y236448D01*
X36077Y236450D01*
Y237750D01*
X36077Y237752D01*
X38804Y238881D01*
X41415Y240885D01*
X43419Y243496D01*
X44678Y246537D01*
X44774Y247260D01*
D02*
G37*
G36*
X45000Y18660D02*
X35040D01*
Y8700D01*
X45000D01*
Y18660D01*
D02*
G37*
G36*
X29960D02*
X20000D01*
Y8700D01*
X29960D01*
Y18660D01*
D02*
G37*
%LPD*%
D24*
X302550Y83550D02*
Y338735D01*
X391450Y179265D02*
Y282550D01*
X315250Y83550D02*
Y338735D01*
D25*
X266143Y397160D02*
X298983Y430000D01*
X448000D02*
X552000Y326000D01*
X298983Y430000D02*
X448000D01*
X552000Y326000D02*
X667500D01*
X266143Y142160D02*
Y397160D01*
D26*
X32500Y224400D02*
D03*
Y122800D02*
D03*
Y148200D02*
D03*
Y46600D02*
D03*
Y72000D02*
D03*
Y97400D02*
D03*
Y173600D02*
D03*
Y199000D02*
D03*
Y249800D02*
D03*
Y275200D02*
D03*
Y300600D02*
D03*
Y326000D02*
D03*
Y351400D02*
D03*
Y376800D02*
D03*
Y402200D02*
D03*
Y427600D02*
D03*
Y453000D02*
D03*
Y478400D02*
D03*
Y503800D02*
D03*
X667500Y249800D02*
D03*
Y224400D02*
D03*
Y326000D02*
D03*
Y300600D02*
D03*
Y275200D02*
D03*
Y199000D02*
D03*
Y173600D02*
D03*
D27*
X32500Y21200D02*
D03*
X667500Y351400D02*
D03*
D28*
X200000Y225000D02*
D03*
Y318000D02*
D03*
Y349000D02*
D03*
Y374000D02*
D03*
X355772Y462257D02*
D03*
X413000Y416000D02*
D03*
X546292Y262500D02*
D03*
X414000Y237000D02*
D03*
X406000Y275000D02*
D03*
X413000Y360000D02*
D03*
X525000Y165000D02*
D03*
X605000D02*
D03*
Y220000D02*
D03*
X525000D02*
D03*
Y300000D02*
D03*
X605000D02*
D03*
X385000Y130000D02*
D03*
X355000D02*
D03*
X330000D02*
D03*
X200000Y120000D02*
D03*
Y95000D02*
D03*
Y65000D02*
D03*
X380000Y225000D02*
D03*
X335000D02*
D03*
X375000Y385000D02*
D03*
X345000D02*
D03*
X315000D02*
D03*
X380000Y185000D02*
D03*
X360000Y245000D02*
D03*
X285000Y225000D02*
D03*
Y175000D02*
D03*
Y85000D02*
D03*
Y105000D02*
D03*
X250000Y115000D02*
D03*
Y175000D02*
D03*
X200000Y150000D02*
D03*
Y175000D02*
D03*
X110000Y255000D02*
D03*
Y280000D02*
D03*
X200000Y255000D02*
D03*
Y290000D02*
D03*
X250000Y255000D02*
D03*
Y290000D02*
D03*
X390000Y300000D02*
D03*
X380000D02*
D03*
X390000Y330000D02*
D03*
X380000D02*
D03*
X285000Y255000D02*
D03*
Y290000D02*
D03*
Y340000D02*
D03*
Y350000D02*
D03*
Y360000D02*
D03*
X250000D02*
D03*
X260000Y430000D02*
D03*
X290000Y480000D02*
D03*
X200000D02*
D03*
Y430000D02*
D03*
X50000Y515000D02*
D03*
X80000D02*
D03*
X110000D02*
D03*
X140000D02*
D03*
X170000D02*
D03*
X200000D02*
D03*
X230000D02*
D03*
X260000D02*
D03*
X290000D02*
D03*
X320000D02*
D03*
X350000D02*
D03*
X380000D02*
D03*
X410000D02*
D03*
X440000D02*
D03*
X470000D02*
D03*
X500000D02*
D03*
X530000D02*
D03*
X560000D02*
D03*
X590000D02*
D03*
X620000D02*
D03*
X650000D02*
D03*
X680000D02*
D03*
X680000Y130000D02*
D03*
Y100000D02*
D03*
Y70000D02*
D03*
Y40000D02*
D03*
Y10000D02*
D03*
X650000D02*
D03*
X620000D02*
D03*
X590000D02*
D03*
X560000D02*
D03*
X530000D02*
D03*
X500000D02*
D03*
X470000D02*
D03*
X440000D02*
D03*
X410000D02*
D03*
X380000D02*
D03*
X350000D02*
D03*
X320000D02*
D03*
X290000D02*
D03*
X260000D02*
D03*
X230000D02*
D03*
X200000D02*
D03*
X170000D02*
D03*
X140000D02*
D03*
X110000D02*
D03*
X80000D02*
D03*
X50000D02*
D03*
X303000Y285000D02*
D03*
X266143Y397160D02*
D03*
Y142160D02*
D03*
X391450Y282550D02*
D03*
Y179265D02*
D03*
X137600Y46600D02*
D03*
Y72000D02*
D03*
Y97400D02*
D03*
Y122800D02*
D03*
Y148200D02*
D03*
Y173600D02*
D03*
Y199000D02*
D03*
Y224400D02*
D03*
Y300600D02*
D03*
Y326000D02*
D03*
Y351400D02*
D03*
Y376800D02*
D03*
Y402200D02*
D03*
Y427600D02*
D03*
Y453000D02*
D03*
Y478400D02*
D03*
X315250Y262500D02*
D03*
Y338735D02*
D03*
X302550D02*
D03*
X315250Y83550D02*
D03*
X302550D02*
D03*
M02*
