G04*
G04 #@! TF.GenerationSoftware,Altium Limited,Altium Designer,25.2.1 (25)*
G04*
G04 Layer_Color=8388736*
%FSLAX44Y44*%
%MOMM*%
G71*
G04*
G04 #@! TF.SameCoordinates,855B9A58-CFE3-4230-A620-731D9DC95041*
G04*
G04*
G04 #@! TF.FilePolarity,Negative*
G04*
G01*
G75*
%ADD18R,1.4732X1.2192*%
%ADD19O,0.8032X2.7432*%
%ADD20R,1.2192X1.4732*%
%ADD21C,1.7032*%
%ADD22R,1.7032X1.7032*%
%ADD23C,0.8032*%
D18*
X286000Y142160D02*
D03*
Y121840D02*
D03*
Y397160D02*
D03*
Y376840D02*
D03*
X580000Y275200D02*
D03*
Y295520D02*
D03*
X580000Y199000D02*
D03*
Y178680D02*
D03*
Y249800D02*
D03*
Y229480D02*
D03*
D19*
X302550Y103407D02*
D03*
X315250D02*
D03*
X327950D02*
D03*
X340650D02*
D03*
X353350D02*
D03*
X366050D02*
D03*
X378750D02*
D03*
X391450D02*
D03*
X302550Y159407D02*
D03*
X315250D02*
D03*
X327950D02*
D03*
X340650D02*
D03*
X353350D02*
D03*
X366050D02*
D03*
X378750D02*
D03*
X391450D02*
D03*
X302550Y358593D02*
D03*
X315250D02*
D03*
X327950D02*
D03*
X340650D02*
D03*
X353350D02*
D03*
X366050D02*
D03*
X378750D02*
D03*
X391450D02*
D03*
X302550Y414593D02*
D03*
X315250D02*
D03*
X327950D02*
D03*
X340650D02*
D03*
X353350D02*
D03*
X366050D02*
D03*
X378750D02*
D03*
X391450D02*
D03*
D20*
X104840Y199000D02*
D03*
X125160D02*
D03*
X104840Y224400D02*
D03*
X125160D02*
D03*
Y300600D02*
D03*
X104840D02*
D03*
X125160Y326000D02*
D03*
X104840D02*
D03*
X125160Y351400D02*
D03*
X104840D02*
D03*
X125160Y376800D02*
D03*
X104840D02*
D03*
X125160Y402200D02*
D03*
X104840D02*
D03*
X125160Y427600D02*
D03*
X104840D02*
D03*
X125160Y453000D02*
D03*
X104840D02*
D03*
X125160Y478400D02*
D03*
X104840D02*
D03*
Y46600D02*
D03*
X125160D02*
D03*
X104840Y72000D02*
D03*
X125160D02*
D03*
X104840Y97400D02*
D03*
X125160D02*
D03*
X104840Y122800D02*
D03*
X125160D02*
D03*
X104840Y148200D02*
D03*
X125160D02*
D03*
X104840Y173600D02*
D03*
X125160D02*
D03*
D21*
X32500Y224400D02*
D03*
Y122800D02*
D03*
Y148200D02*
D03*
Y46600D02*
D03*
Y72000D02*
D03*
Y97400D02*
D03*
Y173600D02*
D03*
Y199000D02*
D03*
Y249800D02*
D03*
Y275200D02*
D03*
Y300600D02*
D03*
Y326000D02*
D03*
Y351400D02*
D03*
Y376800D02*
D03*
Y402200D02*
D03*
Y427600D02*
D03*
Y453000D02*
D03*
Y478400D02*
D03*
Y503800D02*
D03*
X667500Y249800D02*
D03*
Y224400D02*
D03*
Y326000D02*
D03*
Y300600D02*
D03*
Y275200D02*
D03*
Y199000D02*
D03*
Y173600D02*
D03*
D22*
X32500Y21200D02*
D03*
X667500Y351400D02*
D03*
D23*
X200000Y225000D02*
D03*
Y318000D02*
D03*
Y349000D02*
D03*
Y374000D02*
D03*
X355772Y462257D02*
D03*
X413000Y416000D02*
D03*
X546292Y262500D02*
D03*
X414000Y237000D02*
D03*
X406000Y275000D02*
D03*
X413000Y360000D02*
D03*
X525000Y165000D02*
D03*
X605000D02*
D03*
Y220000D02*
D03*
X525000D02*
D03*
Y300000D02*
D03*
X605000D02*
D03*
X385000Y130000D02*
D03*
X355000D02*
D03*
X330000D02*
D03*
X200000Y120000D02*
D03*
Y95000D02*
D03*
Y65000D02*
D03*
X380000Y225000D02*
D03*
X335000D02*
D03*
X375000Y385000D02*
D03*
X345000D02*
D03*
X315000D02*
D03*
X380000Y185000D02*
D03*
X360000Y245000D02*
D03*
X285000Y225000D02*
D03*
Y175000D02*
D03*
Y85000D02*
D03*
Y105000D02*
D03*
X250000Y115000D02*
D03*
Y175000D02*
D03*
X200000Y150000D02*
D03*
Y175000D02*
D03*
X110000Y255000D02*
D03*
Y280000D02*
D03*
X200000Y255000D02*
D03*
Y290000D02*
D03*
X250000Y255000D02*
D03*
Y290000D02*
D03*
X390000Y300000D02*
D03*
X380000D02*
D03*
X390000Y330000D02*
D03*
X380000D02*
D03*
X285000Y255000D02*
D03*
Y290000D02*
D03*
Y340000D02*
D03*
Y350000D02*
D03*
Y360000D02*
D03*
X250000D02*
D03*
X260000Y430000D02*
D03*
X290000Y480000D02*
D03*
X200000D02*
D03*
Y430000D02*
D03*
X50000Y515000D02*
D03*
X80000D02*
D03*
X110000D02*
D03*
X140000D02*
D03*
X170000D02*
D03*
X200000D02*
D03*
X230000D02*
D03*
X260000D02*
D03*
X290000D02*
D03*
X320000D02*
D03*
X350000D02*
D03*
X380000D02*
D03*
X410000D02*
D03*
X440000D02*
D03*
X470000D02*
D03*
X500000D02*
D03*
X530000D02*
D03*
X560000D02*
D03*
X590000D02*
D03*
X620000D02*
D03*
X650000D02*
D03*
X680000D02*
D03*
X680000Y130000D02*
D03*
Y100000D02*
D03*
Y70000D02*
D03*
Y40000D02*
D03*
Y10000D02*
D03*
X650000D02*
D03*
X620000D02*
D03*
X590000D02*
D03*
X560000D02*
D03*
X530000D02*
D03*
X500000D02*
D03*
X470000D02*
D03*
X440000D02*
D03*
X410000D02*
D03*
X380000D02*
D03*
X350000D02*
D03*
X320000D02*
D03*
X290000D02*
D03*
X260000D02*
D03*
X230000D02*
D03*
X200000D02*
D03*
X170000D02*
D03*
X140000D02*
D03*
X110000D02*
D03*
X80000D02*
D03*
X50000D02*
D03*
X303000Y285000D02*
D03*
X266143Y397160D02*
D03*
Y142160D02*
D03*
X391450Y282550D02*
D03*
Y179265D02*
D03*
X137600Y46600D02*
D03*
Y72000D02*
D03*
Y97400D02*
D03*
Y122800D02*
D03*
Y148200D02*
D03*
Y173600D02*
D03*
Y199000D02*
D03*
Y224400D02*
D03*
Y300600D02*
D03*
Y326000D02*
D03*
Y351400D02*
D03*
Y376800D02*
D03*
Y402200D02*
D03*
Y427600D02*
D03*
Y453000D02*
D03*
Y478400D02*
D03*
X315250Y262500D02*
D03*
Y338735D02*
D03*
X302550D02*
D03*
X315250Y83550D02*
D03*
X302550D02*
D03*
M02*
