G04*
G04 #@! TF.GenerationSoftware,Altium Limited,Altium Designer,25.2.1 (25)*
G04*
G04 Layer_Color=16711935*
%FSLAX44Y44*%
%MOMM*%
G71*
G04*
G04 #@! TF.SameCoordinates,BB5B7109-8511-46E3-AB3A-B5F62D7AE0FB*
G04*
G04*
G04 #@! TF.FilePolarity,Negative*
G04*
G01*
G75*
%ADD21C,1.7032*%
%ADD22R,1.7032X1.7032*%
%ADD23C,0.8032*%
D21*
X57900Y54710D02*
D03*
X32500D02*
D03*
X57900Y80110D02*
D03*
X32500D02*
D03*
X57900Y105510D02*
D03*
X32500D02*
D03*
X57900Y130910D02*
D03*
X32500D02*
D03*
X57900Y156310D02*
D03*
X32500D02*
D03*
X57900Y181710D02*
D03*
X32500D02*
D03*
X57900Y207110D02*
D03*
X32500D02*
D03*
X57900Y232510D02*
D03*
X32500D02*
D03*
X57900Y257910D02*
D03*
X32500D02*
D03*
X57900Y283310D02*
D03*
X667500Y105510D02*
D03*
Y207110D02*
D03*
Y181710D02*
D03*
Y283310D02*
D03*
Y257910D02*
D03*
Y232510D02*
D03*
Y156310D02*
D03*
Y130910D02*
D03*
Y80110D02*
D03*
Y54710D02*
D03*
Y29310D02*
D03*
D22*
X32500Y283310D02*
D03*
X667500Y308710D02*
D03*
D23*
X629000Y168000D02*
D03*
Y219000D02*
D03*
X91000Y76000D02*
D03*
X118000Y49000D02*
D03*
X91000D02*
D03*
X172000Y22000D02*
D03*
X145000D02*
D03*
X118000D02*
D03*
X91000D02*
D03*
X64000D02*
D03*
X10000D02*
D03*
X37000D02*
D03*
X172000Y318000D02*
D03*
X145000D02*
D03*
X118000D02*
D03*
X91000D02*
D03*
X64000D02*
D03*
X10000D02*
D03*
X37000D02*
D03*
X575000Y91000D02*
D03*
X629000D02*
D03*
X602000D02*
D03*
X629000Y116000D02*
D03*
X602000D02*
D03*
X575000D02*
D03*
X629000Y143000D02*
D03*
X602000D02*
D03*
X575000D02*
D03*
X494000Y112000D02*
D03*
X521000D02*
D03*
X440000D02*
D03*
X413000D02*
D03*
X305000D02*
D03*
X386000D02*
D03*
X359000D02*
D03*
X332000D02*
D03*
X278000Y24000D02*
D03*
X305000D02*
D03*
X332000D02*
D03*
X359000D02*
D03*
X386000D02*
D03*
X413000D02*
D03*
X440000D02*
D03*
X467000D02*
D03*
X494000D02*
D03*
X521000D02*
D03*
X548000D02*
D03*
X575000D02*
D03*
X629000D02*
D03*
X602000D02*
D03*
X359000Y318000D02*
D03*
X386000D02*
D03*
X413000D02*
D03*
X440000D02*
D03*
X467000D02*
D03*
X494000D02*
D03*
X521000D02*
D03*
X548000D02*
D03*
X575000D02*
D03*
X602000D02*
D03*
X629000D02*
D03*
Y272000D02*
D03*
X602000D02*
D03*
X575000D02*
D03*
X548000D02*
D03*
X521000D02*
D03*
X494000D02*
D03*
X467000D02*
D03*
X413000D02*
D03*
X440000D02*
D03*
Y139000D02*
D03*
X413000D02*
D03*
X386000D02*
D03*
X359000D02*
D03*
X332000D02*
D03*
Y166000D02*
D03*
X359000D02*
D03*
X386000D02*
D03*
X413000D02*
D03*
X440000D02*
D03*
X398000Y272000D02*
D03*
X393000Y242000D02*
D03*
X380000Y253000D02*
D03*
X332000Y242000D02*
D03*
Y253000D02*
D03*
Y320000D02*
D03*
X296000Y319000D02*
D03*
Y310000D02*
D03*
X258000Y168000D02*
D03*
Y153000D02*
D03*
X249000D02*
D03*
Y168000D02*
D03*
X440000Y193000D02*
D03*
X413000D02*
D03*
X386000D02*
D03*
X359000D02*
D03*
X332000D02*
D03*
X249000Y191000D02*
D03*
X333000Y46000D02*
D03*
Y37000D02*
D03*
X295000D02*
D03*
Y46000D02*
D03*
X246000Y21000D02*
D03*
Y29000D02*
D03*
Y37000D02*
D03*
X213000Y289710D02*
D03*
Y262000D02*
D03*
Y200000D02*
D03*
Y50000D02*
D03*
Y114000D02*
D03*
Y137060D02*
D03*
X196000Y37000D02*
D03*
Y29000D02*
D03*
Y21000D02*
D03*
X195000Y301000D02*
D03*
Y311000D02*
D03*
Y321000D02*
D03*
X165000Y160000D02*
D03*
Y180000D02*
D03*
X195000Y160000D02*
D03*
Y180000D02*
D03*
X115000Y195000D02*
D03*
X239685Y308010D02*
D03*
X231160Y171120D02*
D03*
X437000Y67160D02*
D03*
X476000Y117000D02*
D03*
X467000Y213160D02*
D03*
X408000Y244000D02*
D03*
X273880Y275880D02*
D03*
X299997Y126760D02*
D03*
X271360Y261540D02*
D03*
X284000Y227630D02*
D03*
X271360Y101360D02*
D03*
X284000Y76000D02*
D03*
M02*
