G04*
G04 #@! TF.GenerationSoftware,Altium Limited,Altium Designer,25.2.1 (25)*
G04*
G04 Layer_Physical_Order=2*
G04 Layer_Color=16711680*
%FSLAX44Y44*%
%MOMM*%
G71*
G04*
G04 #@! TF.SameCoordinates,BB5B7109-8511-46E3-AB3A-B5F62D7AE0FB*
G04*
G04*
G04 #@! TF.FilePolarity,Positive*
G04*
G01*
G75*
%ADD25C,0.6000*%
%ADD26C,0.4500*%
%ADD27C,1.5000*%
%ADD28R,1.5000X1.5000*%
%ADD29C,0.6000*%
G36*
X220000Y306630D02*
Y164087D01*
Y15000D01*
X5000D01*
Y325000D01*
X220000D01*
Y306630D01*
D02*
G37*
G36*
X695000Y15000D02*
X225098D01*
Y164087D01*
X226368Y164713D01*
X227125Y164132D01*
X229072Y163326D01*
X231160Y163051D01*
X233248Y163326D01*
X235194Y164132D01*
X236866Y165414D01*
X238148Y167085D01*
X238954Y169032D01*
X239229Y171120D01*
Y296143D01*
X245391Y302304D01*
X246673Y303976D01*
X247479Y305922D01*
X247754Y308010D01*
X247479Y310098D01*
X246673Y312045D01*
X245391Y313716D01*
X243720Y314998D01*
X241773Y315804D01*
X239685Y316079D01*
X237597Y315804D01*
X235651Y314998D01*
X233979Y313716D01*
X226368Y306104D01*
X225098Y306630D01*
Y325000D01*
X695000D01*
Y15000D01*
D02*
G37*
%LPC*%
G36*
X57900Y295918D02*
X54637Y295488D01*
X51596Y294229D01*
X48985Y292225D01*
X46981Y289614D01*
X46270Y287897D01*
X45000Y288149D01*
Y295810D01*
X20000D01*
Y270810D01*
X27661D01*
X27913Y269540D01*
X26196Y268829D01*
X23585Y266825D01*
X21581Y264214D01*
X20322Y261173D01*
X19892Y257910D01*
X20322Y254647D01*
X21581Y251606D01*
X23585Y248995D01*
X26196Y246991D01*
X28923Y245862D01*
X28923Y245860D01*
Y244560D01*
X28923Y244558D01*
X26196Y243429D01*
X23585Y241425D01*
X21581Y238814D01*
X20322Y235773D01*
X19892Y232510D01*
X20322Y229247D01*
X21581Y226206D01*
X23585Y223595D01*
X26196Y221591D01*
X28923Y220462D01*
X28923Y220460D01*
Y219160D01*
X28923Y219158D01*
X26196Y218029D01*
X23585Y216025D01*
X21581Y213414D01*
X20322Y210373D01*
X19892Y207110D01*
X20322Y203847D01*
X21581Y200806D01*
X23585Y198195D01*
X26196Y196191D01*
X28923Y195062D01*
X28923Y195060D01*
Y193760D01*
X28923Y193758D01*
X26196Y192629D01*
X23585Y190625D01*
X21581Y188014D01*
X20322Y184973D01*
X19892Y181710D01*
X20322Y178447D01*
X21581Y175406D01*
X23585Y172795D01*
X26196Y170791D01*
X28923Y169662D01*
X28923Y169660D01*
Y168360D01*
X28923Y168358D01*
X26196Y167229D01*
X23585Y165225D01*
X21581Y162614D01*
X20322Y159573D01*
X19892Y156310D01*
X20322Y153047D01*
X21581Y150006D01*
X23585Y147395D01*
X26196Y145391D01*
X28923Y144262D01*
X28923Y144260D01*
Y142960D01*
X28923Y142958D01*
X26196Y141829D01*
X23585Y139825D01*
X21581Y137214D01*
X20322Y134173D01*
X19892Y130910D01*
X20322Y127647D01*
X21581Y124606D01*
X23585Y121995D01*
X26196Y119991D01*
X28923Y118862D01*
X28923Y118860D01*
Y117560D01*
X28923Y117558D01*
X26196Y116429D01*
X23585Y114425D01*
X21581Y111814D01*
X20322Y108773D01*
X19892Y105510D01*
X20322Y102247D01*
X21581Y99206D01*
X23585Y96595D01*
X26196Y94591D01*
X28923Y93462D01*
X28923Y93460D01*
Y92160D01*
X28923Y92158D01*
X26196Y91029D01*
X23585Y89025D01*
X21581Y86414D01*
X20322Y83373D01*
X20227Y82650D01*
X32500D01*
Y77570D01*
X20227D01*
X20322Y76847D01*
X21581Y73806D01*
X23585Y71195D01*
X26196Y69191D01*
X28923Y68062D01*
X28923Y68060D01*
Y66760D01*
X28923Y66758D01*
X26196Y65629D01*
X23585Y63625D01*
X21581Y61014D01*
X20322Y57973D01*
X20227Y57250D01*
X32500D01*
Y54710D01*
X35040D01*
Y42437D01*
X35763Y42532D01*
X38804Y43791D01*
X41415Y45795D01*
X43419Y48406D01*
X44548Y51133D01*
X44550Y51133D01*
X45850D01*
X45852Y51133D01*
X46981Y48406D01*
X48985Y45795D01*
X51596Y43791D01*
X54637Y42532D01*
X55360Y42437D01*
Y54710D01*
X57900D01*
Y57250D01*
X70174D01*
X70078Y57973D01*
X68819Y61014D01*
X66815Y63625D01*
X64204Y65629D01*
X61477Y66758D01*
X61477Y66760D01*
Y68060D01*
X61477Y68062D01*
X64204Y69191D01*
X66815Y71195D01*
X68819Y73806D01*
X70078Y76847D01*
X70174Y77570D01*
X57900D01*
Y82650D01*
X70174D01*
X70078Y83373D01*
X68819Y86414D01*
X66815Y89025D01*
X64204Y91029D01*
X61477Y92158D01*
X61477Y92160D01*
Y93460D01*
X61477Y93462D01*
X64204Y94591D01*
X66815Y96595D01*
X68819Y99206D01*
X70078Y102247D01*
X70508Y105510D01*
X70078Y108773D01*
X68819Y111814D01*
X66815Y114425D01*
X64204Y116429D01*
X61477Y117558D01*
X61477Y117560D01*
Y118860D01*
X61477Y118862D01*
X64204Y119991D01*
X66815Y121995D01*
X68819Y124606D01*
X70078Y127647D01*
X70508Y130910D01*
X70078Y134173D01*
X68819Y137214D01*
X66815Y139825D01*
X64204Y141829D01*
X61477Y142958D01*
X61477Y142960D01*
Y144260D01*
X61477Y144262D01*
X64204Y145391D01*
X66815Y147395D01*
X68819Y150006D01*
X70078Y153047D01*
X70508Y156310D01*
X70078Y159573D01*
X68819Y162614D01*
X66815Y165225D01*
X64204Y167229D01*
X61477Y168358D01*
X61477Y168360D01*
Y169660D01*
X61477Y169662D01*
X64204Y170791D01*
X66815Y172795D01*
X68819Y175406D01*
X70078Y178447D01*
X70508Y181710D01*
X70078Y184973D01*
X68819Y188014D01*
X66815Y190625D01*
X64204Y192629D01*
X61477Y193758D01*
X61477Y193760D01*
Y195060D01*
X61477Y195062D01*
X64204Y196191D01*
X66815Y198195D01*
X68819Y200806D01*
X70078Y203847D01*
X70508Y207110D01*
X70078Y210373D01*
X68819Y213414D01*
X66815Y216025D01*
X64204Y218029D01*
X61477Y219158D01*
X61477Y219160D01*
Y220460D01*
X61477Y220462D01*
X64204Y221591D01*
X66815Y223595D01*
X68819Y226206D01*
X70078Y229247D01*
X70508Y232510D01*
X70078Y235773D01*
X68819Y238814D01*
X66815Y241425D01*
X64204Y243429D01*
X61477Y244558D01*
X61477Y244560D01*
Y245860D01*
X61477Y245862D01*
X64204Y246991D01*
X66815Y248995D01*
X68819Y251606D01*
X70078Y254647D01*
X70508Y257910D01*
X70078Y261173D01*
X68819Y264214D01*
X66815Y266825D01*
X64204Y268829D01*
X61477Y269958D01*
X61477Y269960D01*
Y271260D01*
X61477Y271262D01*
X64204Y272391D01*
X66815Y274395D01*
X68819Y277006D01*
X70078Y280047D01*
X70508Y283310D01*
X70078Y286573D01*
X68819Y289614D01*
X66815Y292225D01*
X64204Y294229D01*
X61163Y295488D01*
X57900Y295918D01*
D02*
G37*
G36*
X70174Y52170D02*
X60440D01*
Y42437D01*
X61163Y42532D01*
X64204Y43791D01*
X66815Y45795D01*
X68819Y48406D01*
X70078Y51447D01*
X70174Y52170D01*
D02*
G37*
G36*
X29960D02*
X20227D01*
X20322Y51447D01*
X21581Y48406D01*
X23585Y45795D01*
X26196Y43791D01*
X29237Y42532D01*
X29960Y42437D01*
Y52170D01*
D02*
G37*
G36*
X680000Y321210D02*
X670040D01*
Y311250D01*
X680000D01*
Y321210D01*
D02*
G37*
G36*
X664960D02*
X655000D01*
Y311250D01*
X664960D01*
Y321210D01*
D02*
G37*
G36*
X680000Y306170D02*
X667500D01*
X655000D01*
Y296210D01*
X662661D01*
X662913Y294940D01*
X661196Y294229D01*
X658585Y292225D01*
X656581Y289614D01*
X655322Y286573D01*
X654892Y283310D01*
X655322Y280047D01*
X656581Y277006D01*
X658585Y274395D01*
X661196Y272391D01*
X663923Y271262D01*
X663923Y271260D01*
Y269960D01*
X663923Y269958D01*
X661196Y268829D01*
X658585Y266825D01*
X656581Y264214D01*
X655322Y261173D01*
X655227Y260450D01*
X667500D01*
X679773D01*
X679678Y261173D01*
X678419Y264214D01*
X676415Y266825D01*
X673804Y268829D01*
X671077Y269958D01*
X671077Y269960D01*
Y271260D01*
X671077Y271262D01*
X673804Y272391D01*
X676415Y274395D01*
X678419Y277006D01*
X679678Y280047D01*
X680108Y283310D01*
X679678Y286573D01*
X678419Y289614D01*
X676415Y292225D01*
X673804Y294229D01*
X672087Y294940D01*
X672339Y296210D01*
X680000D01*
Y306170D01*
D02*
G37*
G36*
X679773Y255370D02*
X667500D01*
X655227D01*
X655322Y254647D01*
X656581Y251606D01*
X658585Y248995D01*
X661196Y246991D01*
X663923Y245862D01*
X663923Y245860D01*
Y244560D01*
X663923Y244558D01*
X661196Y243429D01*
X658585Y241425D01*
X656581Y238814D01*
X655322Y235773D01*
X654892Y232510D01*
X655322Y229247D01*
X656581Y226206D01*
X658585Y223595D01*
X661196Y221591D01*
X663923Y220462D01*
X663923Y220460D01*
Y219160D01*
X663923Y219158D01*
X661196Y218029D01*
X658585Y216025D01*
X656581Y213414D01*
X655322Y210373D01*
X654892Y207110D01*
X655322Y203847D01*
X656581Y200806D01*
X658585Y198195D01*
X661196Y196191D01*
X663923Y195062D01*
X663923Y195060D01*
Y193760D01*
X663923Y193758D01*
X661196Y192629D01*
X658585Y190625D01*
X656581Y188014D01*
X655322Y184973D01*
X654892Y181710D01*
X655322Y178447D01*
X656581Y175406D01*
X658585Y172795D01*
X661196Y170791D01*
X663923Y169662D01*
X663923Y169660D01*
Y168360D01*
X663923Y168358D01*
X661196Y167229D01*
X658585Y165225D01*
X656581Y162614D01*
X655322Y159573D01*
X654892Y156310D01*
X655322Y153047D01*
X656581Y150006D01*
X658585Y147395D01*
X661196Y145391D01*
X663923Y144262D01*
X663923Y144260D01*
Y142960D01*
X663923Y142958D01*
X661196Y141829D01*
X658585Y139825D01*
X657355Y138223D01*
X552279D01*
X474469Y216032D01*
X473988Y217194D01*
X472706Y218866D01*
X471035Y220148D01*
X469088Y220954D01*
X467000Y221229D01*
X464912Y220954D01*
X462966Y220148D01*
X461294Y218866D01*
X460012Y217194D01*
X459206Y215248D01*
X458931Y213160D01*
X459206Y211072D01*
X460012Y209125D01*
X461294Y207454D01*
X462966Y206172D01*
X464128Y205690D01*
X544079Y125739D01*
X544079Y125739D01*
X545594Y124577D01*
X547357Y123847D01*
X549250Y123597D01*
X549250Y123597D01*
X657355D01*
X658585Y121995D01*
X661196Y119991D01*
X663923Y118862D01*
X663923Y118860D01*
Y117560D01*
X663923Y117558D01*
X661196Y116429D01*
X658585Y114425D01*
X656581Y111814D01*
X655322Y108773D01*
X654892Y105510D01*
X655322Y102247D01*
X656581Y99206D01*
X658585Y96595D01*
X661196Y94591D01*
X663923Y93462D01*
X663923Y93460D01*
Y92160D01*
X663923Y92158D01*
X661196Y91029D01*
X658585Y89025D01*
X657355Y87423D01*
X574919D01*
X415470Y246872D01*
X414988Y248034D01*
X413706Y249706D01*
X412034Y250988D01*
X410088Y251794D01*
X408000Y252069D01*
X405912Y251794D01*
X403965Y250988D01*
X402294Y249706D01*
X401012Y248034D01*
X400206Y246088D01*
X399931Y244000D01*
X400206Y241912D01*
X401012Y239965D01*
X402294Y238294D01*
X403965Y237012D01*
X405128Y236530D01*
X566719Y74939D01*
X566719Y74939D01*
X568234Y73777D01*
X569997Y73047D01*
X571890Y72797D01*
X571890Y72797D01*
X657355D01*
X658585Y71195D01*
X661196Y69191D01*
X663923Y68062D01*
X663923Y68060D01*
Y66760D01*
X663923Y66758D01*
X661196Y65629D01*
X658585Y63625D01*
X656581Y61014D01*
X655322Y57973D01*
X655227Y57250D01*
X667500D01*
X679773D01*
X679678Y57973D01*
X678419Y61014D01*
X676415Y63625D01*
X673804Y65629D01*
X671077Y66758D01*
X671077Y66760D01*
Y68060D01*
X671077Y68062D01*
X673804Y69191D01*
X676415Y71195D01*
X678419Y73806D01*
X679678Y76847D01*
X680108Y80110D01*
X679678Y83373D01*
X678419Y86414D01*
X676415Y89025D01*
X673804Y91029D01*
X671077Y92158D01*
X671077Y92160D01*
Y93460D01*
X671077Y93462D01*
X673804Y94591D01*
X676415Y96595D01*
X678419Y99206D01*
X679678Y102247D01*
X680108Y105510D01*
X679678Y108773D01*
X678419Y111814D01*
X676415Y114425D01*
X673804Y116429D01*
X671077Y117558D01*
X671077Y117560D01*
Y118860D01*
X671077Y118862D01*
X673804Y119991D01*
X676415Y121995D01*
X678419Y124606D01*
X679678Y127647D01*
X680108Y130910D01*
X679678Y134173D01*
X678419Y137214D01*
X676415Y139825D01*
X673804Y141829D01*
X671077Y142958D01*
X671077Y142960D01*
Y144260D01*
X671077Y144262D01*
X673804Y145391D01*
X676415Y147395D01*
X678419Y150006D01*
X679678Y153047D01*
X680108Y156310D01*
X679678Y159573D01*
X678419Y162614D01*
X676415Y165225D01*
X673804Y167229D01*
X671077Y168358D01*
X671077Y168360D01*
Y169660D01*
X671077Y169662D01*
X673804Y170791D01*
X676415Y172795D01*
X678419Y175406D01*
X679678Y178447D01*
X680108Y181710D01*
X679678Y184973D01*
X678419Y188014D01*
X676415Y190625D01*
X673804Y192629D01*
X671077Y193758D01*
X671077Y193760D01*
Y195060D01*
X671077Y195062D01*
X673804Y196191D01*
X676415Y198195D01*
X678419Y200806D01*
X679678Y203847D01*
X680108Y207110D01*
X679678Y210373D01*
X678419Y213414D01*
X676415Y216025D01*
X673804Y218029D01*
X671077Y219158D01*
X671077Y219160D01*
Y220460D01*
X671077Y220462D01*
X673804Y221591D01*
X676415Y223595D01*
X678419Y226206D01*
X679678Y229247D01*
X680108Y232510D01*
X679678Y235773D01*
X678419Y238814D01*
X676415Y241425D01*
X673804Y243429D01*
X671077Y244558D01*
X671077Y244560D01*
Y245860D01*
X671077Y245862D01*
X673804Y246991D01*
X676415Y248995D01*
X678419Y251606D01*
X679678Y254647D01*
X679773Y255370D01*
D02*
G37*
G36*
X274000Y284069D02*
X271912Y283794D01*
X269965Y282988D01*
X268294Y281706D01*
X268242Y281638D01*
X268174Y281586D01*
X266892Y279915D01*
X266086Y277969D01*
X265811Y275880D01*
X266086Y273792D01*
X266892Y271845D01*
X268128Y270235D01*
X268171Y270154D01*
X267915Y268772D01*
X267325Y268528D01*
X265654Y267246D01*
X264372Y265575D01*
X263566Y263629D01*
X263291Y261540D01*
X263566Y259452D01*
X264048Y258289D01*
Y104611D01*
X263566Y103448D01*
X263291Y101360D01*
X263566Y99272D01*
X264372Y97325D01*
X265654Y95654D01*
X267325Y94372D01*
X269272Y93566D01*
X271360Y93291D01*
X273448Y93566D01*
X275394Y94372D01*
X275548Y94490D01*
X276688Y93928D01*
Y79251D01*
X276206Y78088D01*
X275931Y76000D01*
X276206Y73912D01*
X277012Y71965D01*
X278294Y70294D01*
X279965Y69012D01*
X281912Y68206D01*
X284000Y67931D01*
X286088Y68206D01*
X288034Y69012D01*
X289706Y70294D01*
X290988Y71965D01*
X291794Y73912D01*
X292069Y76000D01*
X291794Y78088D01*
X291313Y79251D01*
Y123502D01*
X292582Y123755D01*
X293009Y122725D01*
X294291Y121054D01*
X295962Y119772D01*
X297908Y118966D01*
X299997Y118691D01*
X302085Y118966D01*
X304031Y119772D01*
X305703Y121054D01*
X306985Y122725D01*
X307791Y124672D01*
X308066Y126760D01*
Y250003D01*
X307791Y252092D01*
X306985Y254038D01*
X305703Y255709D01*
X279706Y281706D01*
X278034Y282988D01*
X276088Y283794D01*
X274000Y284069D01*
D02*
G37*
G36*
X476000Y125069D02*
X473912Y124794D01*
X471965Y123988D01*
X470294Y122706D01*
X469012Y121034D01*
X468531Y119872D01*
X431829Y83171D01*
X430667Y81656D01*
X429937Y79893D01*
X429687Y78000D01*
X429688Y78000D01*
Y70411D01*
X429206Y69248D01*
X428931Y67160D01*
X429206Y65072D01*
X430012Y63126D01*
X431294Y61454D01*
X432966Y60172D01*
X434912Y59366D01*
X437000Y59091D01*
X439088Y59366D01*
X441035Y60172D01*
X442706Y61454D01*
X443988Y63126D01*
X444794Y65072D01*
X445069Y67160D01*
X444794Y69248D01*
X444313Y70411D01*
Y74971D01*
X478872Y109530D01*
X480034Y110012D01*
X481706Y111294D01*
X482988Y112965D01*
X483794Y114912D01*
X484069Y117000D01*
X483794Y119088D01*
X482988Y121034D01*
X481706Y122706D01*
X480034Y123988D01*
X478088Y124794D01*
X476000Y125069D01*
D02*
G37*
G36*
X679773Y52170D02*
X667500D01*
X655227D01*
X655322Y51447D01*
X656581Y48406D01*
X658585Y45795D01*
X661196Y43791D01*
X663923Y42662D01*
X663923Y42660D01*
Y41360D01*
X663923Y41358D01*
X661196Y40229D01*
X658585Y38225D01*
X656581Y35614D01*
X655322Y32573D01*
X655227Y31850D01*
X667500D01*
X679773D01*
X679678Y32573D01*
X678419Y35614D01*
X676415Y38225D01*
X673804Y40229D01*
X671077Y41358D01*
X671077Y41360D01*
Y42660D01*
X671077Y42662D01*
X673804Y43791D01*
X676415Y45795D01*
X678419Y48406D01*
X679678Y51447D01*
X679773Y52170D01*
D02*
G37*
G36*
Y26770D02*
X670040D01*
Y17037D01*
X670763Y17132D01*
X673804Y18391D01*
X676415Y20395D01*
X678419Y23006D01*
X679678Y26047D01*
X679773Y26770D01*
D02*
G37*
G36*
X664960D02*
X655227D01*
X655322Y26047D01*
X656581Y23006D01*
X658585Y20395D01*
X661196Y18391D01*
X664237Y17132D01*
X664960Y17037D01*
Y26770D01*
D02*
G37*
%LPD*%
D25*
X231160Y299485D02*
X239685Y308010D01*
X231160Y171120D02*
Y299485D01*
X274000Y276000D02*
X299997Y250003D01*
Y126760D02*
Y250003D01*
D26*
X437000Y78000D02*
X476000Y117000D01*
X437000Y67160D02*
Y78000D01*
X408000Y244000D02*
X571890Y80110D01*
X667500D01*
X467000Y213160D02*
X549250Y130910D01*
X667500D01*
X284000Y76000D02*
Y227630D01*
X271360Y101360D02*
Y261540D01*
D27*
X57900Y54710D02*
D03*
X32500D02*
D03*
X57900Y80110D02*
D03*
X32500D02*
D03*
X57900Y105510D02*
D03*
X32500D02*
D03*
X57900Y130910D02*
D03*
X32500D02*
D03*
X57900Y156310D02*
D03*
X32500D02*
D03*
X57900Y181710D02*
D03*
X32500D02*
D03*
X57900Y207110D02*
D03*
X32500D02*
D03*
X57900Y232510D02*
D03*
X32500D02*
D03*
X57900Y257910D02*
D03*
X32500D02*
D03*
X57900Y283310D02*
D03*
X667500Y105510D02*
D03*
Y207110D02*
D03*
Y181710D02*
D03*
Y283310D02*
D03*
Y257910D02*
D03*
Y232510D02*
D03*
Y156310D02*
D03*
Y130910D02*
D03*
Y80110D02*
D03*
Y54710D02*
D03*
Y29310D02*
D03*
D28*
X32500Y283310D02*
D03*
X667500Y308710D02*
D03*
D29*
X629000Y168000D02*
D03*
Y219000D02*
D03*
X91000Y76000D02*
D03*
X118000Y49000D02*
D03*
X91000D02*
D03*
X172000Y22000D02*
D03*
X145000D02*
D03*
X118000D02*
D03*
X91000D02*
D03*
X64000D02*
D03*
X10000D02*
D03*
X37000D02*
D03*
X172000Y318000D02*
D03*
X145000D02*
D03*
X118000D02*
D03*
X91000D02*
D03*
X64000D02*
D03*
X10000D02*
D03*
X37000D02*
D03*
X575000Y91000D02*
D03*
X629000D02*
D03*
X602000D02*
D03*
X629000Y116000D02*
D03*
X602000D02*
D03*
X575000D02*
D03*
X629000Y143000D02*
D03*
X602000D02*
D03*
X575000D02*
D03*
X494000Y112000D02*
D03*
X521000D02*
D03*
X440000D02*
D03*
X413000D02*
D03*
X305000D02*
D03*
X386000D02*
D03*
X359000D02*
D03*
X332000D02*
D03*
X278000Y24000D02*
D03*
X305000D02*
D03*
X332000D02*
D03*
X359000D02*
D03*
X386000D02*
D03*
X413000D02*
D03*
X440000D02*
D03*
X467000D02*
D03*
X494000D02*
D03*
X521000D02*
D03*
X548000D02*
D03*
X575000D02*
D03*
X629000D02*
D03*
X602000D02*
D03*
X359000Y318000D02*
D03*
X386000D02*
D03*
X413000D02*
D03*
X440000D02*
D03*
X467000D02*
D03*
X494000D02*
D03*
X521000D02*
D03*
X548000D02*
D03*
X575000D02*
D03*
X602000D02*
D03*
X629000D02*
D03*
Y272000D02*
D03*
X602000D02*
D03*
X575000D02*
D03*
X548000D02*
D03*
X521000D02*
D03*
X494000D02*
D03*
X467000D02*
D03*
X413000D02*
D03*
X440000D02*
D03*
Y139000D02*
D03*
X413000D02*
D03*
X386000D02*
D03*
X359000D02*
D03*
X332000D02*
D03*
Y166000D02*
D03*
X359000D02*
D03*
X386000D02*
D03*
X413000D02*
D03*
X440000D02*
D03*
X398000Y272000D02*
D03*
X393000Y242000D02*
D03*
X380000Y253000D02*
D03*
X332000Y242000D02*
D03*
Y253000D02*
D03*
Y320000D02*
D03*
X296000Y319000D02*
D03*
Y310000D02*
D03*
X258000Y168000D02*
D03*
Y153000D02*
D03*
X249000D02*
D03*
Y168000D02*
D03*
X440000Y193000D02*
D03*
X413000D02*
D03*
X386000D02*
D03*
X359000D02*
D03*
X332000D02*
D03*
X249000Y191000D02*
D03*
X333000Y46000D02*
D03*
Y37000D02*
D03*
X295000D02*
D03*
Y46000D02*
D03*
X246000Y21000D02*
D03*
Y29000D02*
D03*
Y37000D02*
D03*
X213000Y289710D02*
D03*
Y262000D02*
D03*
Y200000D02*
D03*
Y50000D02*
D03*
Y114000D02*
D03*
Y137060D02*
D03*
X196000Y37000D02*
D03*
Y29000D02*
D03*
Y21000D02*
D03*
X195000Y301000D02*
D03*
Y311000D02*
D03*
Y321000D02*
D03*
X165000Y160000D02*
D03*
Y180000D02*
D03*
X195000Y160000D02*
D03*
Y180000D02*
D03*
X115000Y195000D02*
D03*
X239685Y308010D02*
D03*
X231160Y171120D02*
D03*
X437000Y67160D02*
D03*
X476000Y117000D02*
D03*
X467000Y213160D02*
D03*
X408000Y244000D02*
D03*
X273880Y275880D02*
D03*
X299997Y126760D02*
D03*
X271360Y261540D02*
D03*
X284000Y227630D02*
D03*
X271360Y101360D02*
D03*
X284000Y76000D02*
D03*
M02*
