G04*
G04 #@! TF.GenerationSoftware,Altium Limited,Altium Designer,25.2.1 (25)*
G04*
G04 Layer_Color=8421504*
%FSLAX44Y44*%
%MOMM*%
G71*
G04*
G04 #@! TF.SameCoordinates,BB5B7109-8511-46E3-AB3A-B5F62D7AE0FB*
G04*
G04*
G04 #@! TF.FilePolarity,Positive*
G04*
G01*
G75*
%ADD15R,1.0160X1.2700*%
%ADD16O,2.5400X0.6000*%
%ADD17R,1.2700X1.0160*%
D15*
X230160Y308010D02*
D03*
X209840D02*
D03*
X231160Y30010D02*
D03*
X210840D02*
D03*
X231160Y160010D02*
D03*
X210840D02*
D03*
Y180010D02*
D03*
X231160D02*
D03*
D16*
X249000Y50560D02*
D03*
Y63260D02*
D03*
Y75960D02*
D03*
Y88660D02*
D03*
Y101360D02*
D03*
Y114060D02*
D03*
Y126760D02*
D03*
Y139460D02*
D03*
X193000Y50560D02*
D03*
Y63260D02*
D03*
Y75960D02*
D03*
Y88660D02*
D03*
Y101360D02*
D03*
Y114060D02*
D03*
Y126760D02*
D03*
Y139460D02*
D03*
X249000Y199560D02*
D03*
Y212260D02*
D03*
Y224960D02*
D03*
Y237660D02*
D03*
Y250360D02*
D03*
Y263060D02*
D03*
Y275760D02*
D03*
Y288460D02*
D03*
X193000Y199560D02*
D03*
Y212260D02*
D03*
Y224960D02*
D03*
Y237660D02*
D03*
Y250360D02*
D03*
Y263060D02*
D03*
Y275760D02*
D03*
Y288460D02*
D03*
D17*
X314000Y230850D02*
D03*
Y251170D02*
D03*
Y289850D02*
D03*
Y310170D02*
D03*
Y67160D02*
D03*
Y46840D02*
D03*
Y213160D02*
D03*
Y192840D02*
D03*
M02*
