G04*
G04 #@! TF.GenerationSoftware,Altium Limited,Altium Designer,25.2.1 (25)*
G04*
G04 Layer_Physical_Order=1*
G04 Layer_Color=255*
%FSLAX44Y44*%
%MOMM*%
G71*
G04*
G04 #@! TF.SameCoordinates,BB5B7109-8511-46E3-AB3A-B5F62D7AE0FB*
G04*
G04*
G04 #@! TF.FilePolarity,Positive*
G04*
G01*
G75*
%ADD11C,0.3000*%
%ADD15R,1.0160X1.2700*%
%ADD16O,2.5400X0.6000*%
%ADD17R,1.2700X1.0160*%
%ADD24C,0.8000*%
%ADD25C,0.6000*%
%ADD26C,0.4500*%
%ADD27C,1.5000*%
%ADD28R,1.5000X1.5000*%
%ADD29C,0.6000*%
G36*
X695000Y15000D02*
X225098D01*
Y18660D01*
Y40098D01*
X227491Y42491D01*
X241576D01*
D01*
D01*
X246460D01*
Y50560D01*
X249000D01*
Y53100D01*
X266307D01*
X265688Y54594D01*
X265524Y54809D01*
X266086Y55947D01*
X288260D01*
X288260Y55947D01*
X290153Y56197D01*
X291916Y56927D01*
X293431Y58089D01*
X295189Y59847D01*
X301752D01*
X302650Y58949D01*
X302650Y57080D01*
X302650Y55810D01*
Y49380D01*
X325350D01*
Y55810D01*
X325350Y56920D01*
X325350Y58190D01*
Y59847D01*
X433749D01*
X434912Y59366D01*
X437000Y59091D01*
X439088Y59366D01*
X441035Y60172D01*
X442706Y61454D01*
X443988Y63126D01*
X444794Y65072D01*
X445069Y67160D01*
X444794Y69248D01*
X443988Y71195D01*
X442706Y72866D01*
X441035Y74148D01*
X439088Y74954D01*
X437000Y75229D01*
X434912Y74954D01*
X433749Y74472D01*
X325350D01*
Y77240D01*
X302650D01*
Y74472D01*
X293149D01*
X292028Y75688D01*
X292069Y76000D01*
X291794Y78088D01*
X290988Y80035D01*
X290854Y80209D01*
X291416Y81348D01*
X554660D01*
X554660Y81348D01*
X556553Y81597D01*
X558316Y82327D01*
X559831Y83489D01*
X574539Y98197D01*
X657355D01*
X658585Y96595D01*
X661196Y94591D01*
X663923Y93462D01*
X663923Y93460D01*
Y92160D01*
X663923Y92158D01*
X661196Y91029D01*
X658585Y89025D01*
X656581Y86414D01*
X655322Y83373D01*
X654892Y80110D01*
X655322Y76847D01*
X656581Y73806D01*
X658585Y71195D01*
X661196Y69191D01*
X663923Y68062D01*
X663923Y68060D01*
Y66760D01*
X663923Y66758D01*
X661196Y65629D01*
X658585Y63625D01*
X656581Y61014D01*
X655322Y57973D01*
X655227Y57250D01*
X667500D01*
X679773D01*
X679678Y57973D01*
X678419Y61014D01*
X676415Y63625D01*
X673804Y65629D01*
X671077Y66758D01*
X671077Y66760D01*
Y68060D01*
X671077Y68062D01*
X673804Y69191D01*
X676415Y71195D01*
X678419Y73806D01*
X679678Y76847D01*
X680108Y80110D01*
X679678Y83373D01*
X678419Y86414D01*
X676415Y89025D01*
X673804Y91029D01*
X671077Y92158D01*
X671077Y92160D01*
Y93460D01*
X671077Y93462D01*
X673804Y94591D01*
X676415Y96595D01*
X678419Y99206D01*
X679678Y102247D01*
X680108Y105510D01*
X679678Y108773D01*
X678419Y111814D01*
X676415Y114425D01*
X673804Y116429D01*
X671077Y117558D01*
X671077Y117560D01*
Y118860D01*
X671077Y118862D01*
X673804Y119991D01*
X676415Y121995D01*
X678419Y124606D01*
X679678Y127647D01*
X680108Y130910D01*
X679678Y134173D01*
X678419Y137214D01*
X676415Y139825D01*
X673804Y141829D01*
X671077Y142958D01*
X671077Y142960D01*
Y144260D01*
X671077Y144262D01*
X673804Y145391D01*
X676415Y147395D01*
X678419Y150006D01*
X679678Y153047D01*
X680108Y156310D01*
X679678Y159573D01*
X678419Y162614D01*
X676415Y165225D01*
X673804Y167229D01*
X671077Y168358D01*
X671077Y168360D01*
Y169660D01*
X671077Y169662D01*
X673804Y170791D01*
X676415Y172795D01*
X678419Y175406D01*
X679678Y178447D01*
X680108Y181710D01*
X679678Y184973D01*
X678419Y188014D01*
X676415Y190625D01*
X673804Y192629D01*
X671077Y193758D01*
X671077Y193760D01*
Y195060D01*
X671077Y195062D01*
X673804Y196191D01*
X676415Y198195D01*
X678419Y200806D01*
X679678Y203847D01*
X680108Y207110D01*
X679678Y210373D01*
X678419Y213414D01*
X676415Y216025D01*
X673804Y218029D01*
X671077Y219158D01*
X671077Y219160D01*
Y220460D01*
X671077Y220462D01*
X673804Y221591D01*
X676415Y223595D01*
X678419Y226206D01*
X679678Y229247D01*
X680108Y232510D01*
X679678Y235773D01*
X678419Y238814D01*
X676415Y241425D01*
X673804Y243429D01*
X671077Y244558D01*
X671077Y244560D01*
Y245860D01*
X671077Y245862D01*
X673804Y246991D01*
X676415Y248995D01*
X678419Y251606D01*
X679678Y254647D01*
X679773Y255370D01*
X667500D01*
X655227D01*
X655322Y254647D01*
X656581Y251606D01*
X658585Y248995D01*
X661196Y246991D01*
X663923Y245862D01*
X663923Y245860D01*
Y244560D01*
X663923Y244558D01*
X661196Y243429D01*
X658585Y241425D01*
X656581Y238814D01*
X656311Y238163D01*
X415205D01*
X414579Y239433D01*
X414988Y239965D01*
X415794Y241912D01*
X416069Y244000D01*
X415794Y246088D01*
X414988Y248034D01*
X413706Y249706D01*
X412034Y250988D01*
X410872Y251469D01*
X393171Y269171D01*
X391656Y270333D01*
X390000Y271019D01*
Y275998D01*
X657355D01*
X658585Y274395D01*
X661196Y272391D01*
X663923Y271262D01*
X663923Y271260D01*
Y269960D01*
X663923Y269958D01*
X661196Y268829D01*
X658585Y266825D01*
X656581Y264214D01*
X655322Y261173D01*
X655227Y260450D01*
X667500D01*
X679773D01*
X679678Y261173D01*
X678419Y264214D01*
X676415Y266825D01*
X673804Y268829D01*
X671077Y269958D01*
X671077Y269960D01*
Y271260D01*
X671077Y271262D01*
X673804Y272391D01*
X676415Y274395D01*
X678419Y277006D01*
X679678Y280047D01*
X680108Y283310D01*
X679678Y286573D01*
X678419Y289614D01*
X676415Y292225D01*
X673804Y294229D01*
X672087Y294940D01*
X672339Y296210D01*
X680000D01*
Y306170D01*
X667500D01*
X655000D01*
Y296210D01*
X662661D01*
X662913Y294940D01*
X661196Y294229D01*
X658585Y292225D01*
X657355Y290623D01*
X343539D01*
X339141Y295021D01*
X337626Y296183D01*
X335863Y296913D01*
X333970Y297163D01*
X333970Y297163D01*
X326248D01*
X325350Y298061D01*
X325350Y299930D01*
X325350Y301200D01*
Y307630D01*
X314000D01*
X302650D01*
Y301200D01*
X302650Y300090D01*
X302650Y298820D01*
Y297163D01*
X299670D01*
X299670Y297163D01*
X297777Y296913D01*
X296014Y296183D01*
X294499Y295021D01*
X294499Y295021D01*
X281029Y281550D01*
X279761Y281633D01*
X279706Y281706D01*
X278034Y282988D01*
X276088Y283794D01*
X274000Y284069D01*
X272178Y283829D01*
X266751D01*
X265967Y285099D01*
X266494Y286372D01*
X266769Y288460D01*
X266494Y290548D01*
X265688Y292495D01*
X264406Y294166D01*
X262735Y295448D01*
X260788Y296254D01*
X258700Y296529D01*
X257069D01*
Y301000D01*
X256794Y303088D01*
X255988Y305035D01*
X254706Y306706D01*
X247696Y313716D01*
X246024Y314998D01*
X244078Y315804D01*
X241990Y316079D01*
X240240D01*
Y319360D01*
X225938D01*
X225424Y319909D01*
X225098Y320597D01*
Y325000D01*
X695000D01*
Y15000D01*
D02*
G37*
G36*
X400531Y241128D02*
X401012Y239965D01*
X401421Y239433D01*
X400795Y238163D01*
X325350D01*
Y240930D01*
X325350D01*
Y241090D01*
X325350D01*
Y248630D01*
X314000D01*
Y253710D01*
X325350D01*
Y256688D01*
X384971D01*
X400531Y241128D01*
D02*
G37*
G36*
X661196Y221591D02*
X663923Y220462D01*
X663923Y220460D01*
Y219160D01*
X663923Y219158D01*
X661196Y218029D01*
X658585Y216025D01*
X657936Y215179D01*
X503110D01*
X501022Y214904D01*
X499076Y214098D01*
X497404Y212816D01*
X472668Y188079D01*
X241240D01*
Y191360D01*
X242456Y191491D01*
X246460D01*
Y199560D01*
X249000D01*
Y202100D01*
X266307D01*
X265688Y203595D01*
X265524Y203808D01*
X266086Y204947D01*
X302650D01*
X306597Y201000D01*
X320503D01*
X325350Y205847D01*
X463749D01*
X464912Y205366D01*
X467000Y205091D01*
X469088Y205366D01*
X471035Y206172D01*
X472706Y207454D01*
X473988Y209125D01*
X474794Y211072D01*
X475069Y213160D01*
X474794Y215248D01*
X473988Y217194D01*
X472706Y218866D01*
X471035Y220148D01*
X469088Y220954D01*
X467000Y221229D01*
X464912Y220954D01*
X463749Y220473D01*
X325350D01*
Y223538D01*
X658660D01*
X661196Y221591D01*
D02*
G37*
G36*
X658585Y198195D02*
X661196Y196191D01*
X663923Y195062D01*
X663923Y195060D01*
Y193760D01*
X663923Y193758D01*
X661196Y192629D01*
X658585Y190625D01*
X657936Y189779D01*
X505710D01*
X503622Y189504D01*
X501676Y188698D01*
X500004Y187416D01*
X447418Y134829D01*
X266751D01*
X265967Y136099D01*
X266494Y137372D01*
X266769Y139460D01*
X266494Y141548D01*
X265688Y143495D01*
X264406Y145166D01*
X262735Y146448D01*
X260788Y147254D01*
X258700Y147529D01*
X241576D01*
X241240Y148660D01*
X241240D01*
Y168660D01*
Y171941D01*
X476010D01*
X478098Y172216D01*
X480045Y173022D01*
X481716Y174304D01*
X506452Y199041D01*
X657936D01*
X658585Y198195D01*
D02*
G37*
G36*
Y172795D02*
X661196Y170791D01*
X663923Y169662D01*
X663923Y169660D01*
Y168360D01*
X663923Y168358D01*
X661196Y167229D01*
X658585Y165225D01*
X657355Y163623D01*
X515310D01*
X513417Y163373D01*
X511654Y162643D01*
X510139Y161481D01*
X510139Y161481D01*
X473128Y124469D01*
X471965Y123988D01*
X470294Y122706D01*
X469012Y121034D01*
X468206Y119088D01*
X467931Y117000D01*
X468206Y114912D01*
X469012Y112965D01*
X470294Y111294D01*
X471965Y110012D01*
X473912Y109206D01*
X476000Y108931D01*
X478088Y109206D01*
X480034Y110012D01*
X481706Y111294D01*
X482988Y112965D01*
X483470Y114128D01*
X518339Y148997D01*
X657355D01*
X658585Y147395D01*
X661196Y145391D01*
X663923Y144262D01*
X663923Y144260D01*
Y142960D01*
X663923Y142958D01*
X661196Y141829D01*
X658585Y139825D01*
X656581Y137214D01*
X655322Y134173D01*
X654892Y130910D01*
X655322Y127647D01*
X656581Y124606D01*
X658585Y121995D01*
X661196Y119991D01*
X663923Y118862D01*
X663923Y118860D01*
Y117560D01*
X663923Y117558D01*
X661196Y116429D01*
X658585Y114425D01*
X657355Y112823D01*
X571510D01*
X571510Y112823D01*
X569617Y112573D01*
X567854Y111843D01*
X566339Y110681D01*
X566339Y110681D01*
X551631Y95973D01*
X278746D01*
X278184Y97112D01*
X278348Y97325D01*
X279154Y99272D01*
X279429Y101360D01*
X279154Y103448D01*
X278348Y105394D01*
X277066Y107066D01*
X275394Y108348D01*
X273448Y109154D01*
X271360Y109429D01*
X269272Y109154D01*
X268109Y108673D01*
X266086D01*
X265524Y109812D01*
X265688Y110026D01*
X266494Y111972D01*
X266769Y114060D01*
X266494Y116148D01*
X265967Y117421D01*
X266751Y118691D01*
X450760D01*
X452848Y118966D01*
X454795Y119772D01*
X456466Y121054D01*
X509052Y173641D01*
X657936D01*
X658585Y172795D01*
D02*
G37*
G36*
X220000Y320597D02*
X219920Y319360D01*
X218730Y319360D01*
X212380D01*
Y308010D01*
Y296660D01*
X219920Y296660D01*
X220000Y295423D01*
Y191360D01*
Y190440D01*
X215920Y186360D01*
X213380D01*
Y180010D01*
X210840D01*
Y177470D01*
X208406D01*
Y162550D01*
X210840D01*
Y160010D01*
X213380D01*
Y148660D01*
X220000D01*
Y41360D01*
X213380D01*
Y30010D01*
Y18660D01*
X220000D01*
Y15000D01*
X5000D01*
Y325000D01*
X220000D01*
Y320597D01*
D02*
G37*
%LPC*%
G36*
X325350Y320250D02*
X316540D01*
Y312710D01*
X325350D01*
Y320250D01*
D02*
G37*
G36*
X311460D02*
X302650D01*
Y312710D01*
X311460D01*
Y320250D01*
D02*
G37*
G36*
X680000Y321210D02*
X670040D01*
Y311250D01*
X680000D01*
Y321210D01*
D02*
G37*
G36*
X664960D02*
X655000D01*
Y311250D01*
X664960D01*
Y321210D01*
D02*
G37*
G36*
X266307Y48020D02*
X251540D01*
Y42491D01*
X258700D01*
X260788Y42766D01*
X262735Y43572D01*
X264406Y44854D01*
X265688Y46526D01*
X266307Y48020D01*
D02*
G37*
G36*
X325350Y44300D02*
X316540D01*
Y36760D01*
X325350D01*
Y44300D01*
D02*
G37*
G36*
X311460D02*
X302650D01*
Y36760D01*
X311460D01*
Y44300D01*
D02*
G37*
G36*
X679773Y52170D02*
X667500D01*
X655227D01*
X655322Y51447D01*
X656581Y48406D01*
X658585Y45795D01*
X661196Y43791D01*
X663923Y42662D01*
X663923Y42660D01*
Y41360D01*
X663923Y41358D01*
X661196Y40229D01*
X658585Y38225D01*
X656581Y35614D01*
X655322Y32573D01*
X655227Y31850D01*
X667500D01*
X679773D01*
X679678Y32573D01*
X678419Y35614D01*
X676415Y38225D01*
X673804Y40229D01*
X671077Y41358D01*
X671077Y41360D01*
Y42660D01*
X671077Y42662D01*
X673804Y43791D01*
X676415Y45795D01*
X678419Y48406D01*
X679678Y51447D01*
X679773Y52170D01*
D02*
G37*
G36*
Y26770D02*
X670040D01*
Y17037D01*
X670763Y17132D01*
X673804Y18391D01*
X676415Y20395D01*
X678419Y23006D01*
X679678Y26047D01*
X679773Y26770D01*
D02*
G37*
G36*
X664960D02*
X655227D01*
X655322Y26047D01*
X656581Y23006D01*
X658585Y20395D01*
X661196Y18391D01*
X664237Y17132D01*
X664960Y17037D01*
Y26770D01*
D02*
G37*
G36*
X266307Y197020D02*
X251540D01*
Y191491D01*
X258700D01*
X260788Y191766D01*
X262735Y192572D01*
X264406Y193854D01*
X265688Y195525D01*
X266307Y197020D01*
D02*
G37*
G36*
X149200Y302356D02*
X44990D01*
X43293Y302133D01*
X41712Y301478D01*
X40354Y300436D01*
X35728Y295810D01*
X20000D01*
Y270810D01*
X27661D01*
X27913Y269540D01*
X26196Y268829D01*
X23585Y266825D01*
X21581Y264214D01*
X20322Y261173D01*
X19892Y257910D01*
X20322Y254647D01*
X21581Y251606D01*
X23585Y248995D01*
X26196Y246991D01*
X28923Y245862D01*
X28923Y245860D01*
Y244560D01*
X28923Y244558D01*
X26196Y243429D01*
X23585Y241425D01*
X21581Y238814D01*
X20322Y235773D01*
X19892Y232510D01*
X20322Y229247D01*
X21581Y226206D01*
X23585Y223595D01*
X26196Y221591D01*
X28923Y220462D01*
X28923Y220460D01*
Y219160D01*
X28923Y219158D01*
X26196Y218029D01*
X23585Y216025D01*
X21581Y213414D01*
X20322Y210373D01*
X19892Y207110D01*
X20322Y203847D01*
X21581Y200806D01*
X23585Y198195D01*
X26196Y196191D01*
X28923Y195062D01*
X28923Y195060D01*
Y193760D01*
X28923Y193758D01*
X26196Y192629D01*
X23585Y190625D01*
X21581Y188014D01*
X20322Y184973D01*
X19892Y181710D01*
X20322Y178447D01*
X21581Y175406D01*
X23585Y172795D01*
X26196Y170791D01*
X28923Y169662D01*
X28923Y169660D01*
Y168360D01*
X28923Y168358D01*
X26196Y167229D01*
X23585Y165225D01*
X21581Y162614D01*
X20322Y159573D01*
X19892Y156310D01*
X20322Y153047D01*
X21581Y150006D01*
X23585Y147395D01*
X26196Y145391D01*
X28923Y144262D01*
X28923Y144260D01*
Y142960D01*
X28923Y142958D01*
X26196Y141829D01*
X23585Y139825D01*
X21581Y137214D01*
X20322Y134173D01*
X19892Y130910D01*
X20322Y127647D01*
X21581Y124606D01*
X23585Y121995D01*
X26196Y119991D01*
X28923Y118862D01*
X28923Y118860D01*
Y117560D01*
X28923Y117558D01*
X26196Y116429D01*
X23585Y114425D01*
X21581Y111814D01*
X20322Y108773D01*
X19892Y105510D01*
X20322Y102247D01*
X21581Y99206D01*
X23585Y96595D01*
X26196Y94591D01*
X28923Y93462D01*
X28923Y93460D01*
Y92160D01*
X28923Y92158D01*
X26196Y91029D01*
X23585Y89025D01*
X21581Y86414D01*
X20322Y83373D01*
X20227Y82650D01*
X32500D01*
Y77570D01*
X20227D01*
X20322Y76847D01*
X21581Y73806D01*
X23585Y71195D01*
X26196Y69191D01*
X28923Y68062D01*
X28923Y68060D01*
Y66760D01*
X28923Y66758D01*
X26196Y65629D01*
X23585Y63625D01*
X21581Y61014D01*
X20322Y57973D01*
X20227Y57250D01*
X32500D01*
Y54710D01*
X35040D01*
Y42437D01*
X35763Y42532D01*
X38804Y43791D01*
X41415Y45795D01*
X43419Y48406D01*
X44548Y51133D01*
X44550Y51133D01*
X45850D01*
X45852Y51133D01*
X46981Y48406D01*
X48985Y45795D01*
X51596Y43791D01*
X54637Y42532D01*
X55360Y42437D01*
Y54710D01*
X57900D01*
Y57250D01*
X70174D01*
X70078Y57973D01*
X68819Y61014D01*
X66815Y63625D01*
X64204Y65629D01*
X61477Y66758D01*
X61477Y66760D01*
Y68060D01*
X61477Y68062D01*
X64204Y69191D01*
X66815Y71195D01*
X68819Y73806D01*
X70078Y76847D01*
X70174Y77570D01*
X57900D01*
Y82650D01*
X70174D01*
X70078Y83373D01*
X68819Y86414D01*
X66815Y89025D01*
X64204Y91029D01*
X61477Y92158D01*
X61477Y92160D01*
Y93460D01*
X61477Y93462D01*
X64204Y94591D01*
X66815Y96595D01*
X68625Y98954D01*
X75774D01*
X128804Y45924D01*
X130162Y44882D01*
X131743Y44227D01*
X133440Y44004D01*
X178703D01*
X179266Y43572D01*
X181212Y42766D01*
X183300Y42491D01*
X200424D01*
D01*
D01*
X203765D01*
X203756Y42630D01*
X204788Y42766D01*
X206735Y43572D01*
X208406Y44854D01*
X209688Y46526D01*
X210494Y48472D01*
X210769Y50560D01*
X210494Y52648D01*
X209688Y54594D01*
X208406Y56266D01*
X208394Y56275D01*
Y57545D01*
X208406Y57554D01*
X209688Y59226D01*
X210494Y61172D01*
X210769Y63260D01*
X210494Y65348D01*
X209688Y67295D01*
X208406Y68966D01*
X208394Y68975D01*
Y70245D01*
X208406Y70254D01*
X209688Y71926D01*
X210494Y73872D01*
X210769Y75960D01*
X210494Y78048D01*
X209688Y79995D01*
X208406Y81666D01*
X208394Y81675D01*
Y82945D01*
X208406Y82954D01*
X209688Y84626D01*
X210494Y86572D01*
X210769Y88660D01*
X210494Y90748D01*
X209688Y92695D01*
X208406Y94366D01*
X208394Y94375D01*
Y95645D01*
X208406Y95654D01*
X209688Y97325D01*
X210494Y99272D01*
X210769Y101360D01*
X210494Y103448D01*
X209688Y105394D01*
X208406Y107066D01*
X208394Y107075D01*
Y108345D01*
X208406Y108354D01*
X209688Y110026D01*
X210494Y111972D01*
X210769Y114060D01*
X210494Y116148D01*
X209688Y118095D01*
X208556Y119569D01*
X208394Y120317D01*
Y121045D01*
X208406Y121054D01*
X209688Y122725D01*
X210494Y124672D01*
X210769Y126760D01*
X210494Y128848D01*
X209688Y130794D01*
X208406Y132466D01*
X208394Y132475D01*
Y133203D01*
X208556Y133951D01*
X209688Y135426D01*
X210494Y137372D01*
X210769Y139460D01*
X210494Y141548D01*
X209688Y143495D01*
X208406Y145166D01*
X206735Y146448D01*
X204788Y147254D01*
X203756Y147390D01*
X203765Y147529D01*
X200424D01*
Y147529D01*
Y147529D01*
X183300D01*
X181212Y147254D01*
X179266Y146448D01*
X178703Y146016D01*
X155256D01*
X102436Y198836D01*
X101852Y199284D01*
X102283Y200554D01*
X121174D01*
X126804Y194924D01*
X128162Y193882D01*
X129743Y193227D01*
X131440Y193004D01*
X178703D01*
X179265Y192572D01*
X181212Y191766D01*
X183300Y191491D01*
X199544D01*
X200760Y191360D01*
D01*
X205540D01*
X206810Y192630D01*
D01*
D01*
X208406Y193854D01*
X209688Y195525D01*
X210494Y197472D01*
X210769Y199560D01*
X210494Y201649D01*
X209688Y203595D01*
X208406Y205266D01*
X208393Y205275D01*
Y206545D01*
X208406Y206554D01*
X209688Y208225D01*
X210494Y210172D01*
X210769Y212260D01*
X210494Y214349D01*
X209688Y216295D01*
X208406Y217966D01*
X208393Y217975D01*
Y219245D01*
X208406Y219254D01*
X209688Y220926D01*
X210494Y222872D01*
X210769Y224960D01*
X210494Y227048D01*
X209688Y228995D01*
X208406Y230666D01*
X208393Y230675D01*
Y231945D01*
X208406Y231954D01*
X209688Y233626D01*
X210494Y235572D01*
X210769Y237660D01*
X210494Y239748D01*
X209688Y241695D01*
X208406Y243366D01*
X208393Y243375D01*
Y244645D01*
X208406Y244654D01*
X209688Y246325D01*
X210494Y248272D01*
X210769Y250360D01*
X210494Y252449D01*
X209688Y254395D01*
X208406Y256066D01*
X208393Y256075D01*
Y257345D01*
X208406Y257354D01*
X209688Y259025D01*
X210494Y260972D01*
X210769Y263060D01*
X210494Y265149D01*
X209688Y267095D01*
X208406Y268766D01*
X208393Y268775D01*
Y270045D01*
X208406Y270054D01*
X209688Y271726D01*
X210494Y273672D01*
X210769Y275760D01*
X210494Y277848D01*
X209688Y279795D01*
X208406Y281466D01*
X208393Y281475D01*
Y282745D01*
X208406Y282754D01*
X209688Y284426D01*
X210494Y286372D01*
X210769Y288460D01*
X210494Y290548D01*
X209688Y292495D01*
X208406Y294166D01*
X206810Y295390D01*
X206803Y295524D01*
X201476D01*
X199760Y297240D01*
Y296660D01*
X198544Y296529D01*
X183300D01*
X181212Y296254D01*
X179265Y295448D01*
X178703Y295016D01*
X159256D01*
X153836Y300436D01*
X152478Y301478D01*
X150897Y302133D01*
X149200Y302356D01*
D02*
G37*
G36*
X70174Y52170D02*
X60440D01*
Y42437D01*
X61163Y42532D01*
X64204Y43791D01*
X66815Y45795D01*
X68819Y48406D01*
X70078Y51447D01*
X70174Y52170D01*
D02*
G37*
G36*
X29960D02*
X20227D01*
X20322Y51447D01*
X21581Y48406D01*
X23585Y45795D01*
X26196Y43791D01*
X29237Y42532D01*
X29960Y42437D01*
Y52170D01*
D02*
G37*
G36*
X208300Y38900D02*
X200760D01*
Y32550D01*
X208300D01*
Y38900D01*
D02*
G37*
G36*
Y27470D02*
X200760D01*
Y18660D01*
X208300D01*
Y27470D01*
D02*
G37*
%LPD*%
D11*
X57900Y105510D02*
X78490D01*
X133440Y50560D02*
X193000D01*
X78490Y105510D02*
X133440Y50560D01*
X57900Y181710D02*
X91290D01*
X146240Y126760D02*
X193000D01*
X91290Y181710D02*
X146240Y126760D01*
X156540Y288460D02*
X193000D01*
X149200Y295800D02*
X156540Y288460D01*
X44990Y295800D02*
X149200D01*
X152240Y275760D02*
X193000D01*
X144690Y283310D02*
X152240Y275760D01*
X57900Y283310D02*
X144690D01*
X145940Y263060D02*
X193000D01*
X138600Y270400D02*
X145940Y263060D01*
X44990Y270400D02*
X138600D01*
X136090Y257910D02*
X143640Y250360D01*
X57900Y257910D02*
X136090D01*
X143640Y250360D02*
X193000D01*
X141340Y237660D02*
X193000D01*
X134000Y245000D02*
X141340Y237660D01*
X44990Y245000D02*
X134000D01*
X137040Y224960D02*
X193000D01*
X129490Y232510D02*
X137040Y224960D01*
X57900Y232510D02*
X129490D01*
X134740Y212260D02*
X193000D01*
X127400Y219600D02*
X134740Y212260D01*
X44990Y219600D02*
X127400D01*
X131440Y199560D02*
X193000D01*
X123890Y207110D02*
X131440Y199560D01*
X57900Y207110D02*
X123890D01*
X44990Y194200D02*
X97800D01*
X152540Y139460D01*
X193000D01*
X88200Y168800D02*
X142940Y114060D01*
X44990Y168800D02*
X88200D01*
X142940Y114060D02*
X193000D01*
X139640Y101360D02*
X193000D01*
X57900Y156310D02*
X84690D01*
X139640Y101360D01*
X44990Y143400D02*
X83600D01*
X138340Y88660D01*
X193000D01*
X57900Y130910D02*
X84090D01*
X139040Y75960D01*
X193000D01*
X135740Y63260D02*
X193000D01*
X81000Y118000D02*
X135740Y63260D01*
X32500Y283310D02*
X44990Y295800D01*
X32500Y257910D02*
X44990Y270400D01*
X32500Y232510D02*
X44990Y245000D01*
X32500Y207110D02*
X44990Y219600D01*
X32500Y181710D02*
X44990Y194200D01*
X32500Y156310D02*
X44990Y168800D01*
X32500Y130910D02*
X44990Y143400D01*
Y118000D02*
X81000D01*
X32500Y105510D02*
X44990Y118000D01*
D15*
X230160Y308010D02*
D03*
X209840D02*
D03*
X231160Y30010D02*
D03*
X210840D02*
D03*
X231160Y160010D02*
D03*
X210840D02*
D03*
Y180010D02*
D03*
X231160D02*
D03*
D16*
X249000Y50560D02*
D03*
Y63260D02*
D03*
Y75960D02*
D03*
Y88660D02*
D03*
Y101360D02*
D03*
Y114060D02*
D03*
Y126760D02*
D03*
Y139460D02*
D03*
X193000Y50560D02*
D03*
Y63260D02*
D03*
Y75960D02*
D03*
Y88660D02*
D03*
Y101360D02*
D03*
Y114060D02*
D03*
Y126760D02*
D03*
Y139460D02*
D03*
X249000Y199560D02*
D03*
Y212260D02*
D03*
Y224960D02*
D03*
Y237660D02*
D03*
Y250360D02*
D03*
Y263060D02*
D03*
Y275760D02*
D03*
Y288460D02*
D03*
X193000Y199560D02*
D03*
Y212260D02*
D03*
Y224960D02*
D03*
Y237660D02*
D03*
Y250360D02*
D03*
Y263060D02*
D03*
Y275760D02*
D03*
Y288460D02*
D03*
D17*
X314000Y230850D02*
D03*
Y251170D02*
D03*
Y289850D02*
D03*
Y310170D02*
D03*
Y67160D02*
D03*
Y46840D02*
D03*
Y213160D02*
D03*
Y192840D02*
D03*
D24*
X215940Y114060D02*
X249000D01*
X216940Y263060D02*
X249000D01*
D25*
X231160Y171120D02*
Y180010D01*
Y160010D02*
Y171120D01*
X239685Y308010D02*
X241990D01*
X230160D02*
X239685D01*
X231160Y180010D02*
X476010D01*
X273760Y275760D02*
X274000Y276000D01*
X249000Y275760D02*
X273760D01*
X299997Y126760D02*
X450760D01*
X249000D02*
X299997D01*
X249000Y288460D02*
Y301000D01*
X241990Y308010D02*
X249000Y301000D01*
X231160Y144761D02*
Y160010D01*
Y144761D02*
X236461Y139460D01*
X249000D01*
X505710Y181710D02*
X667500D01*
X450760Y126760D02*
X505710Y181710D01*
X503110Y207110D02*
X667500D01*
X476010Y180010D02*
X503110Y207110D01*
D26*
X314000Y67160D02*
X437000D01*
X292160D02*
X314000D01*
X476000Y117000D02*
X515310Y156310D01*
X667500D01*
X301000Y264000D02*
X388000D01*
X249000Y237660D02*
X274660D01*
X301000Y264000D01*
X249000Y63260D02*
X288260D01*
X292160Y67160D01*
X249040Y76000D02*
X284000D01*
X249000Y75960D02*
X249040Y76000D01*
X571510Y105510D02*
X667500D01*
X554660Y88660D02*
X571510Y105510D01*
X249000Y88660D02*
X554660D01*
X249000Y101360D02*
X271360D01*
X388000Y264000D02*
X408000Y244000D01*
X314000Y213160D02*
X467000D01*
X313100Y212260D02*
X314000Y213160D01*
X249000Y212260D02*
X313100D01*
X665840Y230850D02*
X667500Y232510D01*
X340510Y283310D02*
X667500D01*
X314000Y230850D02*
X665840D01*
X286670D02*
X314000D01*
X280780Y224960D02*
X286670Y230850D01*
X249000Y224960D02*
X280780D01*
X333970Y289850D02*
X340510Y283310D01*
X314000Y289850D02*
X333970D01*
X299670D02*
X314000D01*
X260180Y250360D02*
X299670Y289850D01*
X249000Y250360D02*
X260180D01*
D27*
X57900Y54710D02*
D03*
X32500D02*
D03*
X57900Y80110D02*
D03*
X32500D02*
D03*
X57900Y105510D02*
D03*
X32500D02*
D03*
X57900Y130910D02*
D03*
X32500D02*
D03*
X57900Y156310D02*
D03*
X32500D02*
D03*
X57900Y181710D02*
D03*
X32500D02*
D03*
X57900Y207110D02*
D03*
X32500D02*
D03*
X57900Y232510D02*
D03*
X32500D02*
D03*
X57900Y257910D02*
D03*
X32500D02*
D03*
X57900Y283310D02*
D03*
X667500Y105510D02*
D03*
Y207110D02*
D03*
Y181710D02*
D03*
Y283310D02*
D03*
Y257910D02*
D03*
Y232510D02*
D03*
Y156310D02*
D03*
Y130910D02*
D03*
Y80110D02*
D03*
Y54710D02*
D03*
Y29310D02*
D03*
D28*
X32500Y283310D02*
D03*
X667500Y308710D02*
D03*
D29*
X629000Y168000D02*
D03*
Y219000D02*
D03*
X91000Y76000D02*
D03*
X118000Y49000D02*
D03*
X91000D02*
D03*
X172000Y22000D02*
D03*
X145000D02*
D03*
X118000D02*
D03*
X91000D02*
D03*
X64000D02*
D03*
X10000D02*
D03*
X37000D02*
D03*
X172000Y318000D02*
D03*
X145000D02*
D03*
X118000D02*
D03*
X91000D02*
D03*
X64000D02*
D03*
X10000D02*
D03*
X37000D02*
D03*
X575000Y91000D02*
D03*
X629000D02*
D03*
X602000D02*
D03*
X629000Y116000D02*
D03*
X602000D02*
D03*
X575000D02*
D03*
X629000Y143000D02*
D03*
X602000D02*
D03*
X575000D02*
D03*
X494000Y112000D02*
D03*
X521000D02*
D03*
X440000D02*
D03*
X413000D02*
D03*
X305000D02*
D03*
X386000D02*
D03*
X359000D02*
D03*
X332000D02*
D03*
X278000Y24000D02*
D03*
X305000D02*
D03*
X332000D02*
D03*
X359000D02*
D03*
X386000D02*
D03*
X413000D02*
D03*
X440000D02*
D03*
X467000D02*
D03*
X494000D02*
D03*
X521000D02*
D03*
X548000D02*
D03*
X575000D02*
D03*
X629000D02*
D03*
X602000D02*
D03*
X359000Y318000D02*
D03*
X386000D02*
D03*
X413000D02*
D03*
X440000D02*
D03*
X467000D02*
D03*
X494000D02*
D03*
X521000D02*
D03*
X548000D02*
D03*
X575000D02*
D03*
X602000D02*
D03*
X629000D02*
D03*
Y272000D02*
D03*
X602000D02*
D03*
X575000D02*
D03*
X548000D02*
D03*
X521000D02*
D03*
X494000D02*
D03*
X467000D02*
D03*
X413000D02*
D03*
X440000D02*
D03*
Y139000D02*
D03*
X413000D02*
D03*
X386000D02*
D03*
X359000D02*
D03*
X332000D02*
D03*
Y166000D02*
D03*
X359000D02*
D03*
X386000D02*
D03*
X413000D02*
D03*
X440000D02*
D03*
X398000Y272000D02*
D03*
X393000Y242000D02*
D03*
X380000Y253000D02*
D03*
X332000Y242000D02*
D03*
Y253000D02*
D03*
Y320000D02*
D03*
X296000Y319000D02*
D03*
Y310000D02*
D03*
X258000Y168000D02*
D03*
Y153000D02*
D03*
X249000D02*
D03*
Y168000D02*
D03*
X440000Y193000D02*
D03*
X413000D02*
D03*
X386000D02*
D03*
X359000D02*
D03*
X332000D02*
D03*
X249000Y191000D02*
D03*
X333000Y46000D02*
D03*
Y37000D02*
D03*
X295000D02*
D03*
Y46000D02*
D03*
X246000Y21000D02*
D03*
Y29000D02*
D03*
Y37000D02*
D03*
X213000Y289710D02*
D03*
Y262000D02*
D03*
Y200000D02*
D03*
Y50000D02*
D03*
Y114000D02*
D03*
Y137060D02*
D03*
X196000Y37000D02*
D03*
Y29000D02*
D03*
Y21000D02*
D03*
X195000Y301000D02*
D03*
Y311000D02*
D03*
Y321000D02*
D03*
X165000Y160000D02*
D03*
Y180000D02*
D03*
X195000Y160000D02*
D03*
Y180000D02*
D03*
X115000Y195000D02*
D03*
X239685Y308010D02*
D03*
X231160Y171120D02*
D03*
X437000Y67160D02*
D03*
X476000Y117000D02*
D03*
X467000Y213160D02*
D03*
X408000Y244000D02*
D03*
X273880Y275880D02*
D03*
X299997Y126760D02*
D03*
X271360Y261540D02*
D03*
X284000Y227630D02*
D03*
X271360Y101360D02*
D03*
X284000Y76000D02*
D03*
M02*
